<svg width="65" height="22" viewBox="0 0 65 22" fill="none" xmlns="http://www.w3.org/2000/svg">
<path d="M8.88301 6.10064C7.04816 6.10064 5.70842 6.70231 4.83469 7.93432C4.83469 7.14314 4.19505 6.50175 3.40601 6.50175H0V15.9796C0 18.657 2.16456 20.8274 4.83469 20.8274V13.2062C4.83469 11.5157 5.70843 10.5989 7.2229 10.5989C8.53351 10.5989 9.40725 11.3725 9.40725 12.8624V15.9796C9.40725 18.657 11.5718 20.8274 14.2419 20.8274V12.2607C14.2419 8.27814 12.0285 6.10064 8.88301 6.10064Z" fill="white"/>
<path d="M23.1812 21.2285C25.3655 21.2285 27.2004 20.5123 28.6857 19.051C30.2002 17.5898 30.9574 15.7848 30.9574 13.6646C30.9574 11.5444 30.2002 9.76801 28.6857 8.30679C27.2004 6.84557 25.3655 6.10064 23.1812 6.10064C21.0259 6.10064 19.1911 6.84557 17.6766 8.30679C16.1621 9.76801 15.4049 11.5444 15.4049 13.6646C15.4049 15.7848 16.1621 17.5898 17.6766 19.051C19.1911 20.5123 21.0259 21.2285 23.1812 21.2285ZM23.1812 16.6443C21.5211 16.6443 20.2687 15.4123 20.2687 13.6646C20.2687 11.9169 21.5211 10.6849 23.1812 10.6849C24.8995 10.6849 26.1227 11.9169 26.1227 13.6646C26.1227 15.4123 24.8995 16.6443 23.1812 16.6443Z" fill="white"/>
<path d="M43.0519 7.81972C42.0616 6.67366 40.6928 6.10064 38.9162 6.10064C36.9648 6.10064 35.3338 6.81692 34.0232 8.27814C32.7126 9.7107 32.0719 11.5157 32.0719 13.6646C32.0719 15.8134 32.7126 17.6185 34.0232 19.0797C35.3338 20.5123 36.9648 21.2285 38.9162 21.2285C40.6928 21.2285 42.0616 20.6555 43.0519 19.5095C43.0519 20.2374 43.6403 20.8274 44.3663 20.8274H47.8866V0.771484C45.2164 0.771484 43.0519 2.94195 43.0519 5.61935V7.81972ZM37.7803 15.928C37.2269 15.355 36.9357 14.6101 36.9357 13.6646C36.9357 12.7191 37.2269 11.9742 37.7803 11.4011C38.3337 10.8281 39.0909 10.5416 39.9938 10.5416C40.8966 10.5416 41.6539 10.8281 42.2073 11.4011C42.7606 11.9742 43.0519 12.7191 43.0519 13.6646C43.0519 14.6101 42.7606 15.355 42.2073 15.928C41.6539 16.5011 40.8966 16.7876 39.9938 16.7876C39.0909 16.7876 38.3337 16.5011 37.7803 15.928Z" fill="white"/>
<path d="M60.1653 7.81972C59.1751 6.67366 57.8062 6.10064 56.0296 6.10064C54.0783 6.10064 52.4473 6.81692 51.1367 8.27814C49.8261 9.7107 49.1853 11.5157 49.1853 13.6646C49.1853 15.8134 49.8261 17.6185 51.1367 19.0797C52.4473 20.5123 54.0783 21.2285 56.0296 21.2285C57.8062 21.2285 59.1751 20.6555 60.1653 19.5095C60.1653 20.2374 60.7538 20.8274 61.4797 20.8274H65V6.50175H61.4797C60.7538 6.50175 60.1653 7.09183 60.1653 7.81972ZM54.8938 15.928C54.3404 15.355 54.0492 14.6101 54.0492 13.6646C54.0492 12.7191 54.3404 11.9742 54.8938 11.4011C55.4471 10.8281 56.2044 10.5416 57.1072 10.5416C58.0101 10.5416 58.7673 10.8281 59.3207 11.4011C59.8741 11.9742 60.1653 12.7191 60.1653 13.6646C60.1653 14.6101 59.8741 15.355 59.3207 15.928C58.7673 16.5011 58.0101 16.7876 57.1072 16.7876C56.2044 16.7876 55.4471 16.5011 54.8938 15.928Z" fill="white"/>
</svg>
