<svg width="83" height="20" viewBox="0 0 83 20" fill="none" xmlns="http://www.w3.org/2000/svg">
<path d="M3.382 1.96801C4.9757 0.691111 6.9578 -0.00318899 9 1.10121e-05C11.125 1.10121e-05 13.078 0.736011 14.618 1.96801L16.071 0.51501L17.485 1.92901L16.032 3.38201C17.3089 4.97581 18.0033 6.95781 18 9.00001V10H0V9.00001C0 6.87501 0.736 4.92201 1.968 3.38201L0.514999 1.93001L1.929 0.516012L3.382 1.96901V1.96801ZM0 12H18V19C18 19.2652 17.8946 19.5196 17.7071 19.7071C17.5196 19.8947 17.2652 20 17 20H1C0.7348 20 0.4804 19.8947 0.2929 19.7071C0.1054 19.5196 0 19.2652 0 19V12ZM6 7.00001C6.2652 7.00001 6.5196 6.89471 6.7071 6.70711C6.8946 6.51961 7 6.26521 7 6.00001C7 5.73481 6.8946 5.48041 6.7071 5.29291C6.5196 5.10541 6.2652 5.00001 6 5.00001C5.7348 5.00001 5.4804 5.10541 5.2929 5.29291C5.1054 5.48041 5 5.73481 5 6.00001C5 6.26521 5.1054 6.51961 5.2929 6.70711C5.4804 6.89471 5.7348 7.00001 6 7.00001ZM12 7.00001C12.2652 7.00001 12.5196 6.89471 12.7071 6.70711C12.8946 6.51961 13 6.26521 13 6.00001C13 5.73481 12.8946 5.48041 12.7071 5.29291C12.5196 5.10541 12.2652 5.00001 12 5.00001C11.7348 5.00001 11.4804 5.10541 11.2929 5.29291C11.1054 5.48041 11 5.73481 11 6.00001C11 6.26521 11.1054 6.51961 11.2929 6.70711C11.4804 6.89471 11.7348 7.00001 12 7.00001Z" fill="white"/>
<path d="M34.0251 5.80988L35.6151 10.0099H32.4351L34.0251 5.80988ZM29.1201 13.9999H30.9351L31.8651 11.5249H36.1851L37.1151 13.9999H38.9301L34.8351 3.49988H33.2001L29.1201 13.9999ZM39.9889 13.9999H41.6239V10.6849C41.6239 8.86988 42.3889 7.78988 43.6639 7.78988C44.6239 7.78988 45.2089 8.44988 45.2089 9.39488V13.9999H46.8439V9.01988C46.8439 7.38488 45.7189 6.31988 44.1139 6.31988C43.0039 6.31988 42.1339 6.88988 41.6239 7.69988V6.43988H39.9889V13.9999ZM51.9533 14.1199C52.9583 14.1199 53.8733 13.6699 54.2333 13.0399V13.9999H55.8683V3.37988H54.2333V7.38488C53.7833 6.75488 52.8983 6.31988 51.9233 6.31988C49.6433 6.31988 48.3383 7.93988 48.3383 10.2199C48.3383 12.4999 49.6433 14.1199 51.9533 14.1199ZM49.9733 10.2199C49.9733 8.71988 50.8433 7.74488 52.1633 7.74488C53.4833 7.74488 54.3533 8.71988 54.3533 10.2199C54.3533 11.7049 53.4833 12.6949 52.1633 12.6949C50.8433 12.6949 49.9733 11.7049 49.9733 10.2199ZM62.4711 8.02988L62.5611 6.45488C62.3361 6.36488 62.0061 6.31988 61.7211 6.31988C60.8061 6.31988 59.8161 6.97988 59.4111 7.87988V6.43988H57.7761V13.9999H59.4111V11.1799C59.4111 8.83988 60.3861 7.84988 61.4961 7.84988C61.8411 7.84988 62.2011 7.90988 62.4711 8.02988ZM66.9054 14.1199C69.1704 14.1199 70.8054 12.4849 70.8054 10.2199C70.8054 7.95488 69.1704 6.31988 66.9054 6.31988C64.6254 6.31988 63.0054 7.95488 63.0054 10.2199C63.0054 12.4849 64.6254 14.1199 66.9054 14.1199ZM64.6554 10.2199C64.6554 8.76488 65.5554 7.74488 66.9054 7.74488C68.2404 7.74488 69.1554 8.76488 69.1554 10.2199C69.1554 11.6749 68.2404 12.6949 66.9054 12.6949C65.5554 12.6949 64.6554 11.6749 64.6554 10.2199ZM72.2966 13.9999H73.9321V6.43988H72.2966V13.9999ZM72.2216 5.19488H74.0221V3.37988H72.2216V5.19488ZM79.0611 14.1199C80.0661 14.1199 80.9811 13.6699 81.3411 13.0399V13.9999H82.9761V3.37988H81.3411V7.38488C80.8911 6.75488 80.0061 6.31988 79.0311 6.31988C76.7511 6.31988 75.4461 7.93988 75.4461 10.2199C75.4461 12.4999 76.7511 14.1199 79.0611 14.1199ZM77.0811 10.2199C77.0811 8.71988 77.9511 7.74488 79.2711 7.74488C80.5911 7.74488 81.4611 8.71988 81.4611 10.2199C81.4611 11.7049 80.5911 12.6949 79.2711 12.6949C77.9511 12.6949 77.0811 11.7049 77.0811 10.2199Z" fill="white"/>
</svg>
