<svg width="37" height="16" viewBox="0 0 37 16" fill="none" xmlns="http://www.w3.org/2000/svg">
<path d="M6.59571 2.58033C6.96294 2.1366 7.22306 1.5322 7.22306 0.920157C7.22306 0.836001 7.2154 0.751845 7.2001 0.68299C6.60336 0.705942 5.88421 1.08082 5.45578 1.58576C5.11915 1.96828 4.80548 2.58033 4.80548 3.19237C4.80548 3.28418 4.82078 3.37599 4.82843 3.40659C4.86668 3.41424 4.92789 3.42189 4.98909 3.42189C5.52463 3.42189 6.19788 3.06231 6.59571 2.58033ZM7.01649 3.55195C6.12138 3.55195 5.39457 4.09514 4.92789 4.09514C4.4306 4.09514 3.78031 3.58255 2.99995 3.58255C1.52339 3.58255 0.0238836 4.80664 0.0238836 7.10946C0.0238836 8.54776 0.574724 10.0626 1.26327 11.0418C1.85237 11.8681 2.36495 12.549 3.10706 12.549C3.84151 12.549 4.16283 12.0594 5.07325 12.0594C5.99897 12.0594 6.20553 12.5337 7.01649 12.5337C7.8198 12.5337 8.35534 11.7992 8.86027 11.0724C9.42641 10.2385 9.66358 9.42757 9.67123 9.38932C9.62533 9.37402 8.08757 8.74667 8.08757 6.98705C8.08757 5.46459 9.29636 4.78369 9.36521 4.73013C8.56955 3.58255 7.35311 3.55195 7.01649 3.55195ZM12.1954 12.4648H14.1692V8.81553H16.6021C18.8437 8.81553 20.3585 7.33132 20.3585 5.12796V5.11266C20.3585 2.90165 18.8437 1.42509 16.6021 1.42509H12.1954V12.4648ZM16.1201 3.03936C17.5355 3.03936 18.3617 3.79677 18.3617 5.12031V5.13561C18.3617 6.45916 17.5355 7.22421 16.1201 7.22421H14.1692V3.03936H16.1201ZM23.4487 12.6026C24.5504 12.6026 25.4378 12.1282 25.8969 11.3173H26.0269V12.4648H27.909V6.74988C27.909 4.9826 26.7002 3.94213 24.5504 3.94213C22.5612 3.94213 21.2147 4.87549 21.0311 6.2832L21.0235 6.35205H22.8214L22.829 6.32145C23.0203 5.77061 23.5864 5.45694 24.4586 5.45694C25.4837 5.45694 26.0269 5.91597 26.0269 6.74988V7.46903L23.8771 7.59909C21.8421 7.7215 20.7021 8.59366 20.7021 10.0855V10.1008C20.7021 11.6233 21.8574 12.6026 23.4487 12.6026ZM22.5842 10.009V9.99371C22.5842 9.30516 23.0815 8.91499 24.1449 8.84613L26.0269 8.72372V9.39697C26.0269 10.3915 25.1777 11.1413 24.0301 11.1413C23.1886 11.1413 22.5842 10.7205 22.5842 10.009ZM29.9663 15.4027C31.8178 15.4027 32.7741 14.7371 33.4932 12.6408L36.4923 4.10279H34.4878L32.5446 10.6364H32.3992L30.4483 4.10279H28.3674L31.3587 12.4725L31.2593 12.855C31.0527 13.6124 30.586 13.9338 29.8057 13.9338C29.6068 13.9338 29.3925 13.9261 29.2395 13.9108V15.3721C29.469 15.395 29.7368 15.4027 29.9663 15.4027Z" fill="white"/>
</svg>
