<svg width="16" height="17" viewBox="0 0 16 17" fill="none" xmlns="http://www.w3.org/2000/svg">
<rect y="0.5" width="16" height="16" rx="8" fill="#111111"/>
<path fill-rule="evenodd" clip-rule="evenodd" d="M11.4098 5.67682L6.63981 10.2868L5.37154 9.28683C5.25237 9.18286 5.1015 9.12231 4.94352 9.11505C4.78554 9.10779 4.62975 9.15424 4.50154 9.24683C4.3775 9.33397 4.29034 9.46417 4.25707 9.61207C4.22379 9.75997 4.24678 9.91495 4.32154 10.0468L5.82981 12.1368C5.97981 12.3568 6.23981 12.4968 6.51981 12.4968C6.79981 12.4968 7.04981 12.3568 7.19981 12.1368C7.43981 11.8268 12.0198 6.35682 12.0198 6.35682C12.6198 5.75682 11.8898 5.20682 11.4198 5.67682H11.4098Z" fill="#EEEFFC"/>
<path d="M11.4098 5.67682L6.63981 10.2868L5.37154 9.28683C5.25237 9.18286 5.1015 9.12231 4.94352 9.11505C4.78554 9.10779 4.62975 9.15424 4.50154 9.24683C4.3775 9.33397 4.29034 9.46417 4.25707 9.61207C4.22379 9.75997 4.24678 9.91495 4.32154 10.0468L5.82981 12.1368C5.97981 12.3568 6.23981 12.4968 6.51981 12.4968C6.79981 12.4968 7.04981 12.3568 7.19981 12.1368C7.43981 11.8268 12.0198 6.35682 12.0198 6.35682C12.6198 5.75682 11.8898 5.20682 11.4198 5.67682H11.4098Z" fill="#EEEFFC"/>
</svg>
