<svg width="33" height="33" viewBox="0 0 33 33" fill="none" xmlns="http://www.w3.org/2000/svg">
<rect x="8" y="9" width="19" height="16" fill="white"/>
<path fill-rule="evenodd" clip-rule="evenodd" d="M16.5 32.5C25.3366 32.5 32.5 25.3366 32.5 16.5C32.5 7.66344 25.3366 0.5 16.5 0.5C7.66344 0.5 0.5 7.66344 0.5 16.5C0.5 25.3366 7.66344 32.5 16.5 32.5ZM17.7127 17.2453V23.9087H14.8765V17.2453H12.5V14.6481H14.8765V12.7318C14.8765 10.5085 16.3123 9.3 18.4129 9.3C19.4173 9.3 20.2802 9.36677 20.5348 9.40015V11.7303H19.0778C17.932 11.7303 17.7127 12.2378 17.7127 12.9922V14.6481H20.4358L20.0821 17.2453H17.7127Z" fill="#1A1C1F"/>
</svg>
