<svg width="32" height="32" viewBox="0 0 32 32" fill="none" xmlns="http://www.w3.org/2000/svg">
<path fill-rule="evenodd" clip-rule="evenodd" d="M11.8725 11.8725C11.5365 12.2086 11.0807 12.3974 10.6054 12.3974C9.6134 12.3974 8.80273 11.5974 8.80273 10.6054C8.80273 10.1273 8.99266 9.66879 9.33072 9.33072C9.66879 8.99266 10.1273 8.80273 10.6054 8.80273C11.5974 8.80273 12.3974 9.6134 12.3974 10.6054C12.3974 11.0807 12.2086 11.5365 11.8725 11.8725ZM23.0001 23.0001V17.3467C23.0001 16.4245 22.6337 15.54 21.9816 14.8879C21.3295 14.2358 20.445 13.8694 19.5227 13.8694C18.6161 13.8694 17.5601 14.4241 17.0481 15.2561V14.0721H14.0721V23.0001H17.0481V17.7414C17.0481 16.9201 17.7094 16.2481 18.5307 16.2481C18.9268 16.2481 19.3066 16.4054 19.5867 16.6855C19.8667 16.9655 20.0241 17.3453 20.0241 17.7414V23.0001H23.0001ZM12.0881 23.0001V14.0721H9.1334V23.0001H12.0881Z" fill="white"/>
<path fill-rule="evenodd" clip-rule="evenodd" d="M16 32C24.8366 32 32 24.8366 32 16C32 7.16344 24.8366 0 16 0C7.16344 0 0 7.16344 0 16C0 24.8366 7.16344 32 16 32ZM11.8698 11.8698C11.5337 12.2059 11.0779 12.3947 10.6027 12.3947C9.61067 12.3947 8.8 11.5947 8.8 10.6027C8.8 10.1246 8.98992 9.66605 9.32799 9.32799C9.66605 8.98992 10.1246 8.8 10.6027 8.8C11.5947 8.8 12.3947 9.61067 12.3947 10.6027C12.3947 11.0779 12.2059 11.5337 11.8698 11.8698ZM22.9973 22.9973V17.344C22.9973 16.4218 22.631 15.5373 21.9788 14.8852C21.3267 14.233 20.4422 13.8667 19.52 13.8667C18.6133 13.8667 17.5573 14.4213 17.0453 15.2533V14.0693H14.0693V22.9973H17.0453V17.7387C17.0453 16.9173 17.7067 16.2453 18.528 16.2453C18.9241 16.2453 19.3039 16.4027 19.5839 16.6827C19.864 16.9628 20.0213 17.3426 20.0213 17.7387V22.9973H22.9973ZM12.0853 22.9973V14.0693H9.13067V22.9973H12.0853Z" fill="#1A1C1F"/>
</svg>
