<svg width="32" height="32" viewBox="0 0 32 32" fill="none" xmlns="http://www.w3.org/2000/svg">
<rect x="7" y="8" width="19" height="16" fill="white"/>
<path fill-rule="evenodd" clip-rule="evenodd" d="M32 16C32 24.8366 24.8366 32 16 32C7.16344 32 0 24.8366 0 16C0 7.16344 7.16344 0 16 0C24.8366 0 32 7.16344 32 16ZM22.5494 13.2582C22.5494 13.1242 22.5494 12.9854 22.5398 12.8514C23.1524 12.4064 23.6884 11.8512 24.1143 11.2243C23.5496 11.4684 22.937 11.6454 22.3053 11.7124C22.9561 11.3248 23.4491 10.7122 23.6836 9.98479C23.0806 10.3437 22.401 10.6069 21.6927 10.7409C21.1184 10.1284 20.3049 9.75029 19.4004 9.75029C17.4861 9.75029 15.8924 11.4779 16.3375 13.6076C13.7341 13.4736 11.413 12.2293 9.86722 10.3246C9.59443 10.7888 9.44129 11.3248 9.44129 11.9087C9.44044 12.4257 9.56761 12.9349 9.81145 13.3909C10.0553 13.8468 10.4082 14.2353 10.8387 14.5216C10.3266 14.5025 9.8385 14.3589 9.42214 14.1244V14.1627C9.42214 15.6894 10.4989 16.9528 11.9346 17.2447C11.4369 17.3739 11.0014 17.3739 10.5181 17.3022C10.9153 18.5464 12.0734 19.4509 13.4517 19.4796C12.3749 20.3219 11.0254 20.8196 9.55614 20.8196C9.29771 20.8196 9.05364 20.8101 8.8 20.7814C10.1879 21.6715 11.8389 22.1884 13.6192 22.1884C19.3908 22.1884 22.5494 17.4074 22.5494 13.2582Z" fill="#1A1C1F"/>
</svg>
