<svg width="32" height="32" viewBox="0 0 32 32" fill="none" xmlns="http://www.w3.org/2000/svg">
<rect x="7" y="5" width="19" height="20" fill="white"/>
<path fill-rule="evenodd" clip-rule="evenodd" d="M16 32C7.16344 32 0 24.8366 0 16C0 7.16344 7.16344 0 16 0C24.8366 0 32 7.16344 32 16C32 24.8366 24.8366 32 16 32ZM16.5274 24.9017C21.773 24.8995 26.0393 20.6322 26.0414 15.3877C26.0424 12.8456 25.0537 10.4552 23.2575 8.65694C21.4612 6.85858 19.0724 5.86777 16.5273 5.86667C11.2832 5.86667 7.01519 10.1345 7.0131 15.3802C7.01239 17.057 7.45049 18.6937 8.28308 20.1366L6.93333 25.0667L11.9769 23.7436C13.3665 24.5016 14.9311 24.9011 16.5234 24.9017H16.5274Z" fill="#1A1C1F"/>
<path fill-rule="evenodd" clip-rule="evenodd" d="M12.2103 22.0213L9.21734 22.8064L10.0162 19.8883L9.82818 19.5891C9.0366 18.3301 8.61853 16.8749 8.61914 15.3807C8.62087 11.0207 12.1683 7.47363 16.5302 7.47363C18.6423 7.47437 20.6278 8.29794 22.1208 9.79267C23.6138 11.2874 24.4355 13.2741 24.4347 15.3871C24.433 19.7474 20.8856 23.2949 16.5271 23.2949H16.5239C15.1049 23.2944 13.7131 22.9131 12.499 22.1926L12.2103 22.0213ZM21.3202 17.6501C21.2608 17.5509 21.1023 17.4914 20.8646 17.3724C20.6269 17.2534 19.4581 16.6784 19.2402 16.599C19.0223 16.5197 18.8638 16.4801 18.7053 16.718C18.5469 16.9559 18.0913 17.4914 17.9526 17.6501C17.8139 17.8087 17.6752 17.8286 17.4376 17.7096C17.1999 17.5906 16.4339 17.3396 15.5259 16.5297C14.8191 15.8993 14.342 15.1208 14.2034 14.8828C14.0647 14.6448 14.1886 14.5162 14.3076 14.3977C14.4145 14.2911 14.5453 14.12 14.6642 13.9812C14.783 13.8424 14.8227 13.7432 14.9019 13.5846C14.9811 13.4259 14.9415 13.2871 14.8821 13.1681C14.8227 13.0491 14.3472 11.879 14.1491 11.403C13.9562 10.9395 13.7602 11.0023 13.6143 10.9949C13.4758 10.988 13.3171 10.9865 13.1586 10.9865C13.0002 10.9865 12.7426 11.046 12.5247 11.284C12.3068 11.522 11.6927 12.0971 11.6927 13.2672C11.6927 14.4373 12.5445 15.5677 12.6634 15.7264C12.7822 15.8851 14.3397 18.2862 16.7244 19.3159C17.2916 19.5609 17.7344 19.7071 18.0797 19.8167C18.6491 19.9977 19.1674 19.9721 19.5769 19.9109C20.0337 19.8427 20.9834 19.3359 21.1816 18.7806C21.3796 18.2252 21.3796 17.7492 21.3202 17.6501Z" fill="#1A1C1F"/>
</svg>
