<svg width="50" height="23" viewBox="0 0 50 23" fill="none" xmlns="http://www.w3.org/2000/svg">
<path d="M26.9598 18.9999H28.5948V11.4399H26.9598V18.9999ZM26.8848 10.1949H28.6848V8.37988H26.8848V10.1949ZM35.374 19.1199C38.404 19.1199 40.624 16.8549 40.624 13.7499C40.624 10.6449 38.404 8.37988 35.374 8.37988C32.344 8.37988 30.124 10.6449 30.124 13.7499C30.124 16.8549 32.344 19.1199 35.374 19.1199ZM31.894 13.7499C31.894 11.5299 33.349 9.90988 35.374 9.90988C37.399 9.90988 38.854 11.5299 38.854 13.7499C38.854 15.9699 37.399 17.5749 35.374 17.5749C33.349 17.5749 31.894 15.9699 31.894 13.7499ZM45.6045 19.1199C47.9595 19.1199 49.5045 17.9049 49.5045 16.0749C49.5045 11.8449 43.7445 13.3149 43.7445 11.1999C43.7445 10.3899 44.4345 9.90988 45.5745 9.90988C46.7745 9.90988 47.5995 10.5849 47.8095 11.6499L49.3845 11.0049C49.0845 9.42988 47.5395 8.37988 45.5745 8.37988C43.5195 8.37988 41.9745 9.53488 41.9745 11.1999C41.9745 14.9799 47.7195 13.6149 47.7195 16.1049C47.7195 17.0049 46.9095 17.5899 45.6645 17.5899C44.4045 17.5899 43.3695 16.7049 43.1895 15.3549L41.5845 15.8499C41.8845 17.7699 43.5645 19.1199 45.6045 19.1199Z" fill="white"/>
<path d="M9.62455 7.122C8.74855 7.122 7.39255 6.126 5.96465 6.162C4.08065 6.186 2.35255 7.254 1.38055 8.946C-0.57545 12.342 0.876549 17.358 2.78455 20.118C3.72055 21.462 4.82455 22.974 6.28855 22.926C7.69255 22.866 8.22055 22.014 9.92455 22.014C11.6165 22.014 12.0965 22.926 13.5845 22.89C15.0965 22.866 16.0565 21.522 16.9805 20.166C18.0485 18.606 18.4926 17.094 18.5167 17.01C18.4807 16.998 15.5766 15.882 15.5406 12.522C15.5166 9.714 17.8326 8.37 17.9405 8.31C16.6206 6.378 14.5925 6.162 13.8845 6.114C12.0365 5.97 10.4885 7.122 9.62455 7.122ZM12.7445 4.29C13.5245 3.354 14.0405 2.046 13.8965 0.75C12.7805 0.798 11.4365 1.494 10.6325 2.43C9.91255 3.258 9.28855 4.59 9.45655 5.862C10.6926 5.958 11.9646 5.226 12.7445 4.29Z" fill="white"/>
</svg>
