<svg width="27" height="18" viewBox="0 0 27 18" fill="none" xmlns="http://www.w3.org/2000/svg">
<rect x="0.381076" y="0.381076" width="26.2378" height="17.2378" rx="2.66753" fill="white"/>
<path d="M10.291 13.5833C12.7266 13.5833 14.7021 11.5289 14.7021 8.99862C14.7021 6.46833 12.7266 4.41602 10.291 4.41602C7.85343 4.41602 5.87793 6.46833 5.87793 8.99862C5.87793 11.5289 7.85343 13.5833 10.291 13.5833Z" fill="#E2001A"/>
<path d="M16.7109 13.5833C19.1465 13.5833 21.122 11.5289 21.122 8.99862C21.122 6.46833 19.1465 4.41602 16.7109 4.41602C14.2733 4.41602 12.2998 6.46833 12.2998 8.99862C12.2998 11.5289 14.2733 13.5833 16.7109 13.5833Z" fill="#F6A800"/>
<path d="M13.4984 12.1426C12.7558 11.3209 12.2998 10.214 12.2998 8.99812C12.2998 7.79482 12.7478 6.69843 13.4762 5.88086L13.5691 5.93117C14.2733 6.74455 14.7031 7.81997 14.7031 8.99812C14.7031 10.1826 14.2693 11.2601 13.561 12.0755L13.4984 12.1426Z" fill="#EB690A"/>
<rect x="0.381076" y="0.381076" width="26.2378" height="17.2378" rx="2.66753" stroke="#EBECEE" stroke-width="0.762153"/>
</svg>
