<svg width="47" height="16" viewBox="0 0 47 16" fill="none" xmlns="http://www.w3.org/2000/svg">
<g clip-path="url(#clip0_60_14)">
<path d="M23.4726 4.99602C22.7348 4.99602 22.196 5.23991 21.8446 5.73928C21.8446 5.41859 21.5874 5.15861 21.2701 5.15861H19.9004V9.00029C19.9004 10.0855 20.7709 10.9653 21.8446 10.9653V7.87614C21.8446 7.19095 22.196 6.81932 22.805 6.81932C23.3321 6.81932 23.6834 7.13289 23.6834 7.73678V9.00029C23.6834 10.0855 24.5539 10.9653 25.6277 10.9653V7.4929C25.6277 5.87864 24.7375 4.99602 23.4726 4.99602Z" fill="#29304D"/>
<path d="M29.2225 11.1279C30.1009 11.1279 30.8388 10.8376 31.4361 10.2453C32.0452 9.65299 32.3497 8.92134 32.3497 8.06196C32.3497 7.20257 32.0452 6.48254 31.4361 5.89025C30.8388 5.29797 30.1009 4.99602 29.2225 4.99602C28.3558 4.99602 27.6179 5.29797 27.0089 5.89025C26.3999 6.48254 26.0954 7.20257 26.0954 8.06196C26.0954 8.92134 26.3999 9.65299 27.0089 10.2453C27.6179 10.8376 28.3558 11.1279 29.2225 11.1279ZM29.2225 9.26975C28.5549 9.26975 28.0513 8.77037 28.0513 8.06196C28.0513 7.35354 28.5549 6.85416 29.2225 6.85416C29.9135 6.85416 30.4055 7.35354 30.4055 8.06196C30.4055 8.77037 29.9135 9.26975 29.2225 9.26975Z" fill="#29304D"/>
<path d="M37.2134 5.69283C36.8152 5.22829 36.2647 4.99602 35.5502 4.99602C34.7655 4.99602 34.1096 5.28636 33.5826 5.87864C33.0555 6.45931 32.7979 7.19095 32.7979 8.06196C32.7979 8.93296 33.0555 9.6646 33.5826 10.2569C34.1096 10.8376 34.7655 11.1279 35.5502 11.1279C36.2647 11.1279 36.8152 10.8956 37.2134 10.4311C37.2134 10.7261 37.45 10.9653 37.742 10.9653H39.1576V2.83594C38.0838 2.83594 37.2134 3.7157 37.2134 4.80094V5.69283ZM35.0935 8.97941C34.8709 8.74714 34.7538 8.4452 34.7538 8.06196C34.7538 7.67871 34.8709 7.37677 35.0935 7.1445C35.316 6.91223 35.6205 6.7961 35.9836 6.7961C36.3467 6.7961 36.6512 6.91223 36.8737 7.1445C37.0963 7.37677 37.2134 7.67871 37.2134 8.06196C37.2134 8.4452 37.0963 8.74714 36.8737 8.97941C36.6512 9.21168 36.3467 9.32781 35.9836 9.32781C35.6205 9.32781 35.316 9.21168 35.0935 8.97941Z" fill="#29304D"/>
<path d="M44.0954 5.69283C43.6972 5.22829 43.1467 4.99602 42.4323 4.99602C41.6476 4.99602 40.9917 5.28636 40.4646 5.87864C39.9376 6.45931 39.6799 7.19095 39.6799 8.06196C39.6799 8.93296 39.9376 9.6646 40.4646 10.2569C40.9917 10.8376 41.6476 11.1279 42.4323 11.1279C43.1467 11.1279 43.6972 10.8956 44.0954 10.4311C44.0954 10.7261 44.3321 10.9653 44.624 10.9653H46.0397V5.15861H44.624C44.3321 5.15861 44.0954 5.39779 44.0954 5.69283ZM41.9755 8.97941C41.753 8.74714 41.6359 8.4452 41.6359 8.06196C41.6359 7.67871 41.753 7.37677 41.9755 7.1445C42.198 6.91223 42.5026 6.7961 42.8656 6.7961C43.2287 6.7961 43.5332 6.91223 43.7558 7.1445C43.9783 7.37677 44.0954 7.67871 44.0954 8.06196C44.0954 8.4452 43.9783 8.74714 43.7558 8.97941C43.5332 9.21168 43.2287 9.32781 42.8656 9.32781C42.5026 9.32781 42.198 9.21168 41.9755 8.97941Z" fill="#29304D"/>
<g filter="url(#filter0_d_60_14)">
<path d="M0.916016 6.40913C0.916016 3.15855 3.52327 0.523438 6.73949 0.523438H9.97475C13.191 0.523438 15.7982 3.15855 15.7982 6.40913V9.67896C15.7982 12.9295 13.191 15.5646 9.97475 15.5646H6.73949C3.52327 15.5646 0.916016 12.9295 0.916016 9.67896V6.40913Z" fill="#29304D"/>
</g>
<path d="M9.24224 4.57422C8.36961 4.57422 7.73245 4.86178 7.3169 5.45061C7.3169 5.07247 7.0136 4.76593 6.63946 4.76593H5.01758V9.28885C5.01758 10.5723 6.04702 11.6127 7.3169 11.6127V7.97024C7.3169 7.16231 7.73245 6.72412 8.45272 6.72412C9.07603 6.72412 9.49157 7.09385 9.49157 7.80591V9.28885C9.49157 10.5723 10.521 11.6127 11.7909 11.6127V7.51835C11.7909 5.61493 10.7382 4.57422 9.24224 4.57422Z" fill="white"/>
</g>
<defs>
<filter id="filter0_d_60_14" x="-17.8855" y="-8.87732" width="52.4849" height="52.644" filterUnits="userSpaceOnUse" color-interpolation-filters="sRGB">
<feFlood flood-opacity="0" result="BackgroundImageFix"/>
<feColorMatrix in="SourceAlpha" type="matrix" values="0 0 0 0 0 0 0 0 0 0 0 0 0 0 0 0 0 0 127 0" result="hardAlpha"/>
<feOffset dy="9.40076"/>
<feGaussianBlur stdDeviation="9.40076"/>
<feColorMatrix type="matrix" values="0 0 0 0 0.160784 0 0 0 0 0.188235 0 0 0 0 0.301961 0 0 0 0.05 0"/>
<feBlend mode="normal" in2="BackgroundImageFix" result="effect1_dropShadow_60_14"/>
<feBlend mode="normal" in="SourceGraphic" in2="effect1_dropShadow_60_14" result="shape"/>
</filter>
<clipPath id="clip0_60_14">
<rect width="45.1236" height="15.0412" fill="white" transform="translate(0.916016 0.523438)"/>
</clipPath>
</defs>
</svg>
