<svg width="10" height="9" viewBox="0 0 10 9" fill="none" xmlns="http://www.w3.org/2000/svg">
<path d="M9.63623 4.41064C9.63623 4.24561 9.56006 4.08057 9.43311 3.95996L6.18311 0.709961C6.04346 0.583008 5.89746 0.519531 5.74512 0.519531C5.40234 0.519531 5.14844 0.76709 5.14844 1.10352C5.14844 1.2749 5.21826 1.4209 5.32617 1.53516L6.25928 2.48096L7.80176 3.88379L6.62744 3.80762H0.838379C0.470215 3.80762 0.222656 4.05518 0.222656 4.41064C0.222656 4.76611 0.470215 5.02002 0.838379 5.02002H6.62744L7.80811 4.9375L6.25928 6.34668L5.32617 7.28613C5.21826 7.40039 5.14844 7.54639 5.14844 7.71777C5.14844 8.0542 5.40234 8.30176 5.74512 8.30176C5.89746 8.30176 6.04346 8.23828 6.17676 8.11133L9.43311 4.86133C9.56006 4.74072 9.63623 4.57568 9.63623 4.41064Z" fill="#EEEFFC"/>
</svg>
