<svg width="27" height="18" viewBox="0 0 27 18" fill="none" xmlns="http://www.w3.org/2000/svg">
<rect x="0.375" y="0.375" width="26.25" height="17.25" rx="2.625" fill="white"/>
<path d="M12.2672 11.9136H10.7686L11.7059 6.10547H13.2045L12.2672 11.9136Z" fill="#00579F"/>
<path d="M17.6996 6.24728C17.404 6.12976 16.9352 6 16.3555 6C14.8755 6 13.8333 6.79086 13.8269 7.92154C13.8146 8.75576 14.5731 9.21911 15.1404 9.49726C15.7202 9.7815 15.9173 9.96701 15.9173 10.2204C15.9114 10.6095 15.4487 10.7888 15.0173 10.7888C14.4189 10.7888 14.0984 10.6964 13.6112 10.4799L13.4138 10.3871L13.2041 11.6909C13.5556 11.8514 14.2032 11.9938 14.8755 12C16.448 12 17.4717 11.2214 17.4838 10.0165C17.4898 9.35527 17.0893 8.84865 16.2259 8.43466C15.7017 8.1689 15.3807 7.98971 15.3807 7.71779C15.3869 7.4706 15.6522 7.21741 16.2439 7.21741C16.7311 7.20501 17.0891 7.32237 17.3603 7.4398L17.4958 7.50148L17.6996 6.24728V6.24728Z" fill="#00579F"/>
<path d="M19.6917 9.856C19.8151 9.52233 20.29 8.23093 20.29 8.23093C20.2838 8.24333 20.4132 7.8911 20.4872 7.67486L20.5919 8.17533C20.5919 8.17533 20.8757 9.56561 20.9373 9.856C20.7031 9.856 19.9877 9.856 19.6917 9.856ZM21.5416 6.10547H20.3824C20.0249 6.10547 19.7533 6.21042 19.5991 6.58737L17.373 11.9135H18.9455C18.9455 11.9135 19.2044 11.1967 19.26 11.0423C19.4326 11.0423 20.9622 11.0423 21.1842 11.0423C21.2272 11.2462 21.363 11.9135 21.363 11.9135H22.7506L21.5416 6.10547V6.10547Z" fill="#00579F"/>
<path d="M9.51837 6.10547L8.05071 10.0661L7.89033 9.26282C7.61899 8.33597 6.76801 7.32896 5.81836 6.82824L7.16268 11.9075H8.74746L11.1031 6.10547H9.51837V6.10547Z" fill="#00579F"/>
<path d="M6.68583 6.10547H4.27467L4.25 6.22282C6.13086 6.70481 7.37652 7.86662 7.8883 9.26307L7.36414 6.5937C7.27785 6.22274 7.01265 6.11771 6.68583 6.10547Z" fill="#00579F"/>
<rect x="0.375" y="0.375" width="26.25" height="17.25" rx="2.625" stroke="#EBECEE" stroke-width="0.75"/>
</svg>
