<svg width="48" height="48" viewBox="0 0 48 48" fill="none" xmlns="http://www.w3.org/2000/svg">
<g clip-path="url(#clip0_1_27012)">
<mask id="mask0_1_27012" style="mask-type:luminance" maskUnits="userSpaceOnUse" x="0" y="0" width="48" height="48">
<path d="M47.8094 0.200195H0.206055V47.8035H47.8094V0.200195Z" fill="white"/>
</mask>
<g mask="url(#mask0_1_27012)">
<path d="M31.9998 24.0141C32.001 26.3217 31.5844 28.6106 30.771 30.7698C28.6106 31.5835 26.3214 32.0004 24.0129 32.0007H23.9859C21.609 31.9977 19.3316 31.5633 17.2299 30.771C16.4159 28.6112 15.9993 26.322 15.9999 24.0141V23.9859C15.9988 21.6789 16.4147 19.3903 17.2275 17.231C19.3876 16.4159 21.6774 15.999 23.9862 15.9999H24.0132C26.3217 15.9988 28.6112 16.4159 30.7713 17.2308C31.585 19.39 32.0013 21.6783 32.0001 23.9856L31.9998 24.0141ZM55.5553 18.6666H36.8764L50.0838 5.45841C49.0471 4.00231 47.8908 2.63509 46.6268 1.37112V1.37023C45.3626 0.107726 43.9959 -1.04771 42.5404 -2.08376L29.3322 11.1244V-7.55443C27.5754 -7.85011 25.7973 -7.99912 24.0158 -8H23.983C22.1711 -7.99912 20.3961 -7.84512 18.6666 -7.55443V11.1244L5.45841 -2.08376C4.0029 -1.04801 2.63655 0.108316 1.37434 1.37258L1.3673 1.37757C0.105381 2.63978 -1.04947 4.00495 -2.08494 5.45841L11.1241 18.6666H-7.55443C-7.55443 18.6666 -8 22.1749 -8 23.9889V24.0109C-8 25.8248 -7.84629 27.6027 -7.55443 29.3331H11.1244L-2.08464 42.5416C-0.00696516 45.4573 2.54239 48.0067 5.45841 50.0846L18.6666 36.8756V55.5553C20.4213 55.8495 22.1975 55.9982 23.9768 56H24.022C25.8011 55.9982 27.5772 55.8498 29.3319 55.5553V36.8756L42.5416 50.0846C43.9965 49.0483 45.3632 47.8926 46.6268 46.6298L46.6298 46.6268C47.892 45.3629 49.0474 43.9962 50.0838 42.5416L36.8744 29.3331H55.5553C55.8463 27.6057 55.9979 25.8333 56 24.0232V23.9768C55.9979 22.1667 55.8463 20.3943 55.5553 18.6666Z" fill="#FF4A00"/>
<path d="M31.9998 24.0141C32.001 26.3217 31.5844 28.6106 30.771 30.7698C28.6106 31.5835 26.3214 32.0004 24.0129 32.0007H23.9859C21.609 31.9977 19.3316 31.5633 17.2299 30.771C16.4159 28.6112 15.9993 26.322 15.9999 24.0141V23.9859C15.9988 21.6789 16.4147 19.3903 17.2275 17.231C19.3876 16.4159 21.6774 15.999 23.9862 15.9999H24.0132C26.3217 15.9988 28.6112 16.4159 30.7713 17.2308C31.585 19.39 32.0013 21.6783 32.0001 23.9856L31.9998 24.0141Z" fill="#FF4A00"/>
</g>
<circle cx="24" cy="24" r="10" fill="white"/>
</g>
<defs>
<clipPath id="clip0_1_27012">
<rect width="48" height="48" rx="24" fill="white"/>
</clipPath>
</defs>
</svg>
