<svg width="48" height="48" viewBox="0 0 48 48" fill="none" xmlns="http://www.w3.org/2000/svg">
<g clip-path="url(#clip0_1_27025)">
<mask id="mask0_1_27025" style="mask-type:luminance" maskUnits="userSpaceOnUse" x="0" y="0" width="48" height="48">
<path d="M47.8093 0.200195H0.205933V47.8035H47.8093V0.200195Z" fill="white"/>
</mask>
<g mask="url(#mask0_1_27025)">
<path d="M34.3648 24.02C34.3663 27.009 33.8268 29.9737 32.7732 32.7705C29.975 33.8245 27.0099 34.3644 24.0197 34.3647H23.9848C20.9061 34.3609 17.9562 33.7982 15.2339 32.772C14.1796 29.9745 13.6401 27.0094 13.6408 24.02V23.9836C13.6393 20.9953 14.1781 18.031 15.2309 15.2342C18.0288 14.1784 20.9946 13.6385 23.9852 13.6396H24.0201C27.0103 13.6381 29.9757 14.1784 32.7736 15.2339C33.8276 18.0306 34.3667 20.9946 34.3652 23.9832L34.3648 24.02ZM64.8754 17.0937H40.6814L57.7883 -0.0143833C56.4456 -1.90042 54.9478 -3.67132 53.3107 -5.3085V-5.30964C51.6731 -6.94492 49.903 -8.44151 48.0177 -9.78347L30.9096 7.32459V-16.8694C28.6341 -17.2524 26.3309 -17.4454 24.0235 -17.4465H23.981C21.6341 -17.4454 19.335 -17.2459 17.0949 -16.8694V7.32459L-0.0131626 -9.78347C-1.89844 -8.44189 -3.66821 -6.94415 -5.3031 -5.3066L-5.31222 -5.30014C-6.94673 -3.66525 -8.44257 -1.897 -9.78377 -0.0143833L7.32544 17.0937H-16.8682C-16.8682 17.0937 -17.4453 21.6378 -17.4453 23.9874V24.0159C-17.4453 26.3654 -17.2462 28.6683 -16.8682 30.9095H7.32581L-9.78339 48.018C-7.09225 51.7946 -3.79017 55.0967 -0.0131626 57.7882L17.0949 40.679V64.8741C19.3677 65.2552 21.6683 65.4478 23.973 65.4501H24.0315C26.3359 65.4478 28.6364 65.2556 30.9092 64.8741V40.679L48.0192 57.7882C49.9037 56.4459 51.6739 54.9489 53.3107 53.3132L53.3145 53.3094C54.9493 51.6723 56.4459 49.9021 57.7883 48.018L40.6787 30.9095H64.8754C65.2523 28.6721 65.4487 26.3764 65.4513 24.0318V23.9718C65.4487 21.6272 65.2523 19.3315 64.8754 17.0937Z" fill="#DB009E"/>
<path d="M34.3648 24.02C34.3663 27.009 33.8268 29.9737 32.7732 32.7705C29.975 33.8245 27.0099 34.3644 24.0197 34.3647H23.9848C20.9061 34.3609 17.9562 33.7982 15.2339 32.772C14.1796 29.9745 13.6401 27.0094 13.6408 24.02V23.9836C13.6393 20.9953 14.1781 18.031 15.2309 15.2342C18.0288 14.1784 20.9946 13.6385 23.9852 13.6396H24.0201C27.0103 13.6381 29.9757 14.1784 32.7736 15.2339C33.8276 18.0306 34.3667 20.9946 34.3652 23.9832L34.3648 24.02Z" fill="#DB009E"/>
<path fill-rule="evenodd" clip-rule="evenodd" d="M34.359 23.416L40.6814 17.0937L57.7883 -0.0143833C56.4456 -1.90042 54.9478 -3.67132 53.3107 -5.3085V-5.30964C51.6731 -6.94492 49.903 -8.44151 48.0177 -9.78347L30.9096 7.32459L24.5884 13.6459C24.5857 13.6458 24.5831 13.6457 24.5804 13.6457C27.3803 13.7076 30.1506 14.2443 32.7736 15.2339C33.7609 17.8536 34.2964 20.62 34.359 23.416Z" fill="#6BE795"/>
<path fill-rule="evenodd" clip-rule="evenodd" d="M32.7736 15.2339C30.1531 14.2453 27.3855 13.7087 24.5884 13.6459L22 16.2342L30.2752 27.4999L34.359 23.416C34.2964 20.62 33.7609 17.8536 32.7736 15.2339Z" fill="#6BE795"/>
</g>
<circle cx="24" cy="24" r="10" fill="white"/>
</g>
<defs>
<clipPath id="clip0_1_27025">
<rect width="48" height="48" fill="white"/>
</clipPath>
</defs>
</svg>
