<svg width="180" height="32" viewBox="0 0 180 32" fill="none" xmlns="http://www.w3.org/2000/svg">
<g clip-path="url(#clip0_43_9723)">
<path d="M178.739 9.36158C177.783 7.60768 175.723 6.27743 173.485 6.27743C171.517 6.27743 169.785 7.09365 169.785 9.20999C169.785 10.9921 171.965 12.2008 174.234 13.6827C176.71 15.2539 179.278 17.1866 179.278 20.5428C179.278 24.9251 175.069 27.6138 170.204 27.6138C168.204 27.6138 166.115 27.2212 163.757 26.3146L164.144 20.4816C165.28 22.8097 167.4 24.6521 170.531 24.6521C172.949 24.6521 174.739 23.4744 174.739 21.4183C174.739 19.6654 173.276 18.578 171.487 17.4907C167.725 15.1946 165.339 13.3494 165.339 10.0262C165.339 5.03853 169.457 3.37695 173.725 3.37695C176.201 3.37695 177.755 3.83071 179.335 3.83071L178.739 9.36158ZM157.877 14.5883C157.338 15.4958 156.655 16.7328 156.234 17.6413C155.877 19.3632 155.698 21.6612 155.698 24.1983C155.698 25.2564 155.877 26.6761 156.354 27.16H150.117C151.22 26.1028 151.669 19.607 151.611 17.5509C150.775 14.6203 149.638 11.8093 147.908 8.39378C146.806 6.24926 145.521 4.2223 144.715 3.83071C146.117 3.71119 147.908 3.61988 148.775 3.61988C150.326 3.61988 150.745 3.83072 151.701 5.94706C153.19 9.36254 154.295 11.9288 154.952 13.8343C156.535 11.3254 157.638 9.60353 159.071 7.24621C159.429 6.67194 159.728 5.94706 159.728 5.25133C159.728 4.70621 159.637 4.10278 159.399 3.83071H165.578C164.384 4.10278 159.011 12.6556 157.877 14.5883ZM136.179 9.3023L132.479 17.4295H138.507L136.179 9.3023ZM143.432 27.3708C141.461 27.3708 141.313 27.3116 139.73 21.8118L139.164 19.7868C138.21 20.2396 136.507 20.4515 133.792 20.4515H131.046L130.568 21.4785C129.882 23.0216 128.957 24.8318 128.957 26.1038C128.957 26.4059 128.987 26.7373 129.107 27.161H112.81C113.736 26.1038 114.035 22.6892 114.482 16.4928L114.571 15.0129C114.81 11.4769 114.991 8.75717 114.96 6.85461C114.93 5.28339 114.78 4.28548 114.363 3.83267H120.661C119.765 4.5284 119.436 8.27426 119.019 14.4707L118.899 15.9506C118.75 18.2476 118.452 20.604 118.452 22.9011C118.452 23.9573 118.87 24.1993 119.945 24.1993C123.764 24.1993 124.721 24.1089 126.45 22.9302C127.524 20.9353 128.75 18.4265 129.942 15.8282L131.556 12.3534C133.077 9.08949 134.568 5.76438 134.568 5.13084C134.568 4.67609 134.449 4.25437 134.272 3.83071H139.285C139.285 3.83071 141.314 11.4468 141.762 13.0773L142.746 16.7649C144.446 22.9603 145.522 25.9813 146.955 27.16C145.759 27.3116 144.059 27.3708 143.432 27.3708ZM102.813 27.6138C96.8733 27.6138 93.4404 22.6581 93.4404 17.0981C93.4404 9.36253 97.5882 3.37695 105.498 3.37695C107.975 3.37695 109.14 3.83071 111.138 3.83071L110.542 9.78426C109.408 7.69902 107.557 6.27841 105.081 6.27841C100.156 6.27841 98.1564 11.6586 98.1564 16.2819C98.1564 21.2978 100.933 24.0467 104.632 24.0467C106.632 24.0467 108.393 23.5026 111.348 21.4183C110.155 25.2875 107.378 27.6138 102.813 27.6138ZM82.2196 6.67194C81.6525 6.67194 80.9644 6.67192 80.4289 6.73217C80.2494 7.72912 80.0997 9.45195 79.8905 12.231L79.7705 13.8644C80.0709 13.9256 80.4576 13.9567 80.8166 13.9567C83.6803 13.9567 85.6515 12.2018 85.6515 9.54425C85.6515 7.72913 84.3982 6.67194 82.2196 6.67194ZM90.545 28.1579C88.8445 28.1579 88.426 27.8849 87.8598 27.0988L81.4125 18.0329C80.9049 17.3382 80.5171 16.7639 79.712 16.7639H79.5623L79.4442 18.5168C79.2935 20.9043 79.2043 22.8097 79.2043 24.2294C79.234 25.8006 79.4135 26.7664 79.8319 27.16H73.5939C74.4883 26.3438 74.8156 23.624 75.3242 16.4918L75.4144 15.0119C75.6534 11.5071 75.8329 8.78632 75.8022 6.88376C75.7715 5.2212 75.5939 4.19315 75.1448 3.83071C78.6966 3.83071 83.6506 3.83071 83.6506 3.83071C86.426 3.83071 90.2466 4.31558 90.2466 8.87766C90.2466 12.6235 87.7686 14.6796 84.6957 15.6455C84.9941 15.9185 85.5306 16.6133 85.8598 17.0369L90.545 23.3228C93.4702 27.2212 93.7082 27.4019 94.7543 27.9461C93.4404 28.0967 91.6804 28.1579 90.545 28.1579ZM61.4777 9.3023L57.7445 17.4295H63.8031L61.4777 9.3023ZM68.7282 27.3708C66.7599 27.3708 66.6102 27.3116 65.0286 21.8118L64.4614 19.7868C63.5046 20.2396 61.804 20.4515 59.0881 20.4515H56.3424L55.8654 21.4785C55.3875 22.5678 54.2234 24.8046 54.2531 26.1038C54.2531 26.4059 54.2829 26.7082 54.4028 27.161H48.8817C50.4633 25.5596 52.4633 21.8429 55.2387 15.8291L56.851 12.3544C58.3126 9.21193 59.8654 5.64585 59.8654 5.13182C59.8654 4.67707 59.7474 4.25535 59.567 3.83169H64.5823C64.5823 3.83169 65.8933 8.87863 67.0583 13.0783L68.043 16.7658C69.7445 22.9613 70.8185 25.9823 72.2513 27.161C70.9682 27.3116 69.3559 27.3708 68.7282 27.3708ZM40.3145 6.64181C39.8663 6.64181 39.2703 6.6418 38.7031 6.70302C38.4642 8.33448 38.3145 9.90573 38.1964 11.6276C38.1964 11.6276 38.1062 13.1074 38.1062 13.0472H38.7031C41.6283 13.0472 44.3154 12.0201 44.3154 9.3023C44.3154 7.72914 43.0314 6.64181 40.3145 6.64181ZM39.5698 15.8884H37.9287L37.6897 19.333C37.5707 20.845 37.5103 22.113 37.4805 23.624C37.4805 23.8368 38.1369 24.2896 39.6878 24.2896C42.9114 24.2896 45.0314 22.6581 45.0314 19.9675C45.0314 16.9757 42.613 15.8884 39.5698 15.8884ZM39.9277 27.16H31.8691C32.8845 26.2524 33.1532 22.7174 33.6004 16.4918L33.6897 15.042C33.9296 11.5061 34.1081 8.78632 34.0784 6.88376C34.0486 5.25132 33.8692 4.19315 33.421 3.83071H42.4344C44.5832 3.83071 48.8817 3.95217 48.8817 8.48413C48.8817 11.5061 46.1053 13.3795 43.5688 14.0461C47.1504 14.4085 49.8366 16.1605 49.8366 19.9073C49.8356 23.9563 46.0755 27.16 39.9277 27.16Z" fill="#060809"/>
<path d="M13.7308 0.564457C12.9323 0.564457 12.7672 0.705366 12.5081 0.997844C12.4064 0.991042 12.2999 0.989096 12.1885 0.989096C11.5743 0.989096 10.7855 1.08042 10.1127 1.53615C9.46299 1.97049 9.15397 2.73908 9.50042 3.30169C9.50042 3.30169 9.73267 2.95676 10.4966 2.95676C10.6041 2.95676 10.7231 2.9684 10.8498 2.97909C11.9054 3.10541 12.6866 3.66802 12.5916 5.15373C12.5072 6.63847 11.9572 8.29425 9.70771 8.31368C9.70771 8.31368 9.41789 8.31368 9.10886 8.28453C8.06183 8.1689 7.73266 7.50328 7.73266 7.50328C7.73266 7.50328 8.63765 7.25452 8.64533 6.09141C8.63765 5.30046 7.95723 4.57656 6.97546 4.28408C6.65396 4.18886 6.30079 4.14222 5.93323 4.14222C4.77583 4.14222 3.4764 4.63291 2.6002 5.79117C0.613625 8.44679 0.452396 12.318 0.937043 15.9181C1.42457 19.526 3.68466 22.8677 3.75087 22.959C3.79886 23.0231 3.84205 23.0581 3.89099 23.0581C3.91594 23.0581 3.94185 23.0464 3.96873 23.024C4.94474 22.065 5.87564 20.7542 6.27392 19.8777C6.70002 20.2217 6.47737 20.9534 6.24321 21.7346C6.02056 22.5334 5.47929 23.5934 5.28351 23.9355C5.09445 24.2697 4.84109 24.6584 5.18178 24.8615C5.21633 24.8829 5.26048 24.8945 5.31326 24.8945C5.75088 24.8945 6.78064 24.1221 7.9294 22.5713C9.21539 20.8261 9.86798 19.2772 9.86798 19.2772C9.96203 19.2986 10.1194 19.4599 10.0935 19.8991C10.0762 20.3451 9.62326 22.0048 8.7413 23.5497C7.84974 25.0938 7.02632 26.0596 6.86029 26.2792C6.7576 26.4065 6.84494 26.4862 6.91116 26.5377C6.97642 26.5824 8.5532 28.0729 10.844 29.3323C13.558 30.7966 14.7615 31.0599 14.7615 31.0599C14.7615 31.0599 15.9621 30.8034 18.6761 29.34C20.9659 28.0788 22.5494 26.5814 22.608 26.5309C22.6742 26.4852 22.7586 26.4133 22.6588 26.2734C22.5024 26.0635 21.6761 25.0928 20.7865 23.5488C19.9074 22.0145 19.4371 20.3441 19.4304 19.904C19.4122 19.4599 19.56 19.3132 19.6502 19.2763C19.6502 19.2763 20.3095 20.8349 21.5955 22.5703C22.75 24.123 23.7702 24.8936 24.2097 24.8936C24.2654 24.8936 24.3095 24.8819 24.346 24.8606C24.6761 24.6575 24.4304 24.2629 24.2366 23.9326C24.0561 23.5925 23.5072 22.5392 23.274 21.7337C23.0504 20.9437 22.8181 20.213 23.2519 19.8768C23.6512 20.7532 24.5753 22.0708 25.5542 23.0163C25.5801 23.0435 25.6099 23.0571 25.6387 23.0571C25.6819 23.0571 25.7279 23.0231 25.7682 22.9638C25.8402 22.8666 28.1041 19.5308 28.5878 15.9171C29.0734 12.3092 28.9132 8.44679 26.9247 5.79019C26.0542 4.62902 24.7452 4.1354 23.5801 4.1354C23.2164 4.1354 22.869 4.18303 22.5513 4.27534C21.5619 4.57656 20.8843 5.30728 20.8901 6.09046C20.8901 7.25357 21.7999 7.5023 21.7999 7.5023C21.7999 7.5023 21.4957 8.1514 20.4112 8.28355C20.2087 8.30881 20.012 8.32047 19.8239 8.32047C19.0081 8.32047 18.321 8.05812 17.6876 7.1525C17.0734 6.2809 17.0935 4.48621 17.058 3.88764C17.0302 3.28034 16.9016 1.91803 16.2711 1.36223C15.6425 0.791846 14.8766 0.600396 13.9217 0.5625C13.8517 0.564443 13.7893 0.564457 13.7308 0.564457Z" fill="#060809"/>
</g>
<defs>
<clipPath id="clip0_43_9723">
<rect width="178.951" height="30.5527" fill="white" transform="translate(0.703125 0.5625)"/>
</clipPath>
</defs>
</svg>
