<svg width="324" height="89" viewBox="0 0 324 89" fill="none" xmlns="http://www.w3.org/2000/svg">
<g clip-path="url(#clip0_15_10512)">
<rect x="0.181641" y="9.43896" width="323.636" height="161.818" fill="url(#paint0_radial_15_10512)" fill-opacity="0.4"/>
<g clip-path="url(#clip1_15_10512)">
<g opacity="0.7">
<path opacity="0.11" d="M125.616 69.3748C125.763 69.2795 125.804 69.0832 125.709 68.9364C125.614 68.7896 125.418 68.7478 125.271 68.8431C125.124 68.9384 125.082 69.1346 125.177 69.2815C125.273 69.4283 125.469 69.47 125.616 69.3748Z" fill="white"/>
<path d="M127.427 70.2761C127.537 70.2047 127.569 70.0575 127.497 69.9475C127.426 69.8374 127.279 69.8061 127.169 69.8775C127.058 69.9489 127.027 70.0961 127.099 70.2062C127.17 70.3162 127.317 70.3476 127.427 70.2761Z" fill="white"/>
<path d="M130.001 64.6413C130.112 64.5699 130.143 64.4228 130.071 64.3127C130 64.2026 129.853 64.1713 129.743 64.2427C129.633 64.3142 129.601 64.4613 129.673 64.5714C129.744 64.6815 129.891 64.7128 130.001 64.6413Z" fill="white"/>
<path d="M118.535 71.7039C118.645 71.6324 118.677 71.4853 118.605 71.3752C118.534 71.2651 118.387 71.2338 118.276 71.3052C118.166 71.3767 118.135 71.5238 118.206 71.6339C118.278 71.744 118.425 71.7753 118.535 71.7039Z" fill="white"/>
<path opacity="0.11" d="M114.027 79.1604C114.174 79.0651 114.216 78.8689 114.121 78.7221C114.025 78.5753 113.829 78.5335 113.682 78.6288C113.536 78.724 113.494 78.9203 113.589 79.0671C113.684 79.2139 113.881 79.2557 114.027 79.1604Z" fill="white"/>
<path d="M109.607 77.8757C109.681 77.8281 109.701 77.7301 109.654 77.6567C109.606 77.5834 109.508 77.5625 109.435 77.6101C109.361 77.6577 109.341 77.7557 109.388 77.8291C109.436 77.9024 109.534 77.9233 109.607 77.8757Z" fill="white"/>
<path d="M128.579 74.8152C128.652 74.7676 128.673 74.6695 128.625 74.5962C128.578 74.5228 128.48 74.502 128.406 74.5496C128.333 74.5972 128.312 74.6952 128.36 74.7685C128.407 74.8419 128.505 74.8628 128.579 74.8152Z" fill="white"/>
<path d="M157.544 56.0197C157.617 55.9722 157.638 55.8741 157.59 55.8008C157.543 55.7274 157.445 55.7066 157.371 55.7541C157.298 55.8017 157.277 55.8998 157.325 55.9731C157.372 56.0465 157.47 56.0673 157.544 56.0197Z" fill="white"/>
<path d="M167.369 39.4465C167.442 39.3989 167.463 39.3009 167.415 39.2275C167.368 39.1542 167.27 39.1333 167.196 39.1809C167.123 39.2285 167.102 39.3265 167.15 39.3999C167.197 39.4732 167.295 39.4941 167.369 39.4465Z" fill="white"/>
<path d="M178.845 45.7834C178.918 45.7358 178.939 45.6378 178.892 45.5644C178.844 45.4911 178.746 45.4702 178.673 45.5178C178.599 45.5654 178.578 45.6635 178.626 45.7368C178.674 45.8101 178.772 45.831 178.845 45.7834Z" fill="white"/>
<path opacity="0.11" d="M109.531 80.3786C109.605 80.331 109.626 80.233 109.578 80.1596C109.53 80.0863 109.432 80.0654 109.359 80.113C109.286 80.1606 109.265 80.2587 109.312 80.332C109.36 80.4054 109.458 80.4262 109.531 80.3786Z" fill="white"/>
<path opacity="0.11" d="M131.419 79.7712C131.492 79.7236 131.513 79.6256 131.466 79.5522C131.418 79.4789 131.32 79.458 131.247 79.5056C131.173 79.5532 131.152 79.6512 131.2 79.7246C131.248 79.7979 131.346 79.8188 131.419 79.7712Z" fill="white"/>
<path opacity="0.11" d="M156.065 61.8874C156.138 61.8398 156.159 61.7418 156.111 61.6684C156.064 61.5951 155.966 61.5742 155.892 61.6218C155.819 61.6694 155.798 61.7675 155.846 61.8408C155.893 61.9142 155.991 61.935 156.065 61.8874Z" fill="white"/>
<path d="M112.039 65.9123C112.112 65.8647 112.133 65.7667 112.085 65.6933C112.038 65.62 111.94 65.5991 111.866 65.6467C111.793 65.6943 111.772 65.7924 111.82 65.8657C111.867 65.9391 111.965 65.9599 112.039 65.9123Z" fill="white"/>
<path d="M132.327 52.3689C132.4 52.3213 132.421 52.2232 132.373 52.1499C132.326 52.0765 132.228 52.0557 132.154 52.1033C132.081 52.1509 132.06 52.2489 132.108 52.3223C132.155 52.3956 132.253 52.4165 132.327 52.3689Z" fill="white"/>
<path d="M110.937 83.9987C111.01 83.9512 111.031 83.8531 110.983 83.7798C110.936 83.7064 110.838 83.6856 110.764 83.7332C110.691 83.7808 110.67 83.8788 110.718 83.9521C110.765 84.0255 110.863 84.0463 110.937 83.9987Z" fill="white"/>
<path opacity="0.11" d="M85.3972 88.8664C85.4705 88.8188 85.4914 88.7208 85.4438 88.6474C85.3962 88.5741 85.2982 88.5532 85.2248 88.6008C85.1515 88.6484 85.1306 88.7465 85.1782 88.8198C85.2258 88.8932 85.3239 88.914 85.3972 88.8664Z" fill="white"/>
<path opacity="0.3" d="M116.501 67.5486C116.574 67.501 116.595 67.4029 116.547 67.3296C116.5 67.2562 116.402 67.2354 116.328 67.283C116.255 67.3306 116.234 67.4286 116.282 67.5019C116.329 67.5753 116.427 67.5962 116.501 67.5486Z" fill="white"/>
<path opacity="0.3" d="M114.835 85.0569C114.908 85.0093 114.929 84.9112 114.881 84.8379C114.834 84.7645 114.736 84.7437 114.662 84.7913C114.589 84.8389 114.568 84.9369 114.616 85.0102C114.663 85.0836 114.761 85.1045 114.835 85.0569Z" fill="white"/>
<path opacity="0.3" d="M172.371 36.3899C172.444 36.3423 172.465 36.2442 172.417 36.1709C172.37 36.0975 172.272 36.0767 172.198 36.1243C172.125 36.1719 172.104 36.2699 172.152 36.3432C172.199 36.4166 172.297 36.4375 172.371 36.3899Z" fill="white"/>
<path opacity="0.11" d="M147.445 44.8235C147.518 44.7759 147.539 44.6778 147.491 44.6045C147.444 44.5311 147.346 44.5103 147.272 44.5579C147.199 44.6055 147.178 44.7035 147.226 44.7768C147.273 44.8502 147.371 44.8711 147.445 44.8235Z" fill="white"/>
<path opacity="0.11" d="M172.491 44.4304C172.564 44.3828 172.585 44.2848 172.537 44.2114C172.49 44.1381 172.392 44.1172 172.318 44.1648C172.245 44.2124 172.224 44.3104 172.272 44.3838C172.319 44.4571 172.417 44.478 172.491 44.4304Z" fill="white"/>
<path opacity="0.3" d="M139.653 67.4407C139.8 67.3454 139.841 67.1492 139.746 67.0024C139.651 66.8555 139.455 66.8138 139.308 66.909C139.161 67.0043 139.119 67.2006 139.215 67.3474C139.31 67.4942 139.506 67.536 139.653 67.4407Z" fill="white"/>
<path opacity="0.11" d="M144.906 58.3679C145.052 58.2727 145.094 58.0764 144.999 57.9296C144.904 57.7828 144.707 57.741 144.561 57.8363C144.414 57.9316 144.372 58.1278 144.467 58.2746C144.562 58.4214 144.759 58.4632 144.906 58.3679Z" fill="white"/>
<path d="M141.822 53.7605C141.932 53.689 141.963 53.5419 141.892 53.4318C141.82 53.3218 141.673 53.2904 141.563 53.3619C141.453 53.4333 141.422 53.5804 141.493 53.6905C141.565 53.8006 141.712 53.8319 141.822 53.7605Z" fill="white"/>
<path d="M141.708 73.6599C141.818 73.5885 141.849 73.4413 141.778 73.3312C141.707 73.2212 141.559 73.1898 141.449 73.2613C141.339 73.3327 141.308 73.4799 141.379 73.5899C141.451 73.7 141.598 73.7313 141.708 73.6599Z" fill="white"/>
<path d="M187.542 47.6921C187.652 47.6207 187.683 47.4735 187.612 47.3635C187.54 47.2534 187.393 47.2221 187.283 47.2935C187.173 47.3649 187.142 47.5121 187.213 47.6222C187.285 47.7322 187.432 47.7636 187.542 47.6921Z" fill="white"/>
<path d="M137.17 60.5564C137.28 60.485 137.311 60.3378 137.24 60.2277C137.168 60.1177 137.021 60.0863 136.911 60.1578C136.801 60.2292 136.77 60.3763 136.841 60.4864C136.912 60.5965 137.06 60.6278 137.17 60.5564Z" fill="white"/>
<path d="M120.431 85.3904C120.541 85.3189 120.573 85.1718 120.501 85.0617C120.43 84.9516 120.283 84.9203 120.173 84.9917C120.063 85.0632 120.031 85.2103 120.103 85.3204C120.174 85.4305 120.321 85.4618 120.431 85.3904Z" fill="white"/>
<path d="M157.62 69.3757C157.73 69.3043 157.762 69.1571 157.69 69.0471C157.619 68.937 157.472 68.9057 157.361 68.9771C157.251 69.0485 157.22 69.1957 157.291 69.3058C157.363 69.4158 157.51 69.4472 157.62 69.3757Z" fill="white"/>
<path d="M186.964 37.4924C187.075 37.421 187.106 37.2738 187.034 37.1638C186.963 37.0537 186.816 37.0224 186.706 37.0938C186.596 37.1652 186.564 37.3124 186.636 37.4225C186.707 37.5325 186.854 37.5639 186.964 37.4924Z" fill="white"/>
<path d="M185.412 28.1165C185.522 28.045 185.553 27.8979 185.482 27.7878C185.41 27.6777 185.263 27.6464 185.153 27.7178C185.043 27.7893 185.012 27.9364 185.083 28.0465C185.154 28.1566 185.302 28.1879 185.412 28.1165Z" fill="white"/>
<path opacity="0.3" d="M152.87 46.78C153.017 46.6848 153.058 46.4885 152.963 46.3417C152.868 46.1949 152.672 46.1531 152.525 46.2484C152.378 46.3437 152.336 46.5399 152.432 46.6867C152.527 46.8335 152.723 46.8753 152.87 46.78Z" fill="white"/>
<path d="M146.747 37.3469C146.894 37.2517 146.936 37.0554 146.84 36.9086C146.745 36.7618 146.549 36.72 146.402 36.8153C146.255 36.9106 146.213 37.1068 146.309 37.2536C146.404 37.4004 146.6 37.4422 146.747 37.3469Z" fill="white"/>
<path d="M161.609 45.2629C161.719 45.1915 161.75 45.0443 161.679 44.9343C161.607 44.8242 161.46 44.7929 161.35 44.8643C161.24 44.9357 161.209 45.0829 161.28 45.193C161.351 45.303 161.499 45.3344 161.609 45.2629Z" fill="white"/>
<path opacity="0.3" d="M164.69 35.8987C164.837 35.8034 164.879 35.6072 164.784 35.4604C164.688 35.3135 164.492 35.2718 164.345 35.367C164.198 35.4623 164.157 35.6586 164.252 35.8054C164.347 35.9522 164.543 35.994 164.69 35.8987Z" fill="white"/>
<path opacity="0.3" d="M183.965 36.7962C184.112 36.7009 184.154 36.5046 184.059 36.3578C183.963 36.211 183.767 36.1692 183.62 36.2645C183.473 36.3598 183.432 36.556 183.527 36.7028C183.622 36.8496 183.818 36.8914 183.965 36.7962Z" fill="white"/>
<path opacity="0.3" d="M168.593 47.1497C168.739 47.0544 168.781 46.8581 168.686 46.7113C168.591 46.5645 168.394 46.5227 168.248 46.618C168.101 46.7133 168.059 46.9095 168.154 47.0564C168.249 47.2032 168.446 47.2449 168.593 47.1497Z" fill="white"/>
<path opacity="0.11" d="M175.931 36.346C176.078 36.2507 176.12 36.0544 176.024 35.9076C175.929 35.7608 175.733 35.719 175.586 35.8143C175.439 35.9096 175.398 36.1058 175.493 36.2526C175.588 36.3995 175.784 36.4412 175.931 36.346Z" fill="white"/>
<path opacity="0.3" d="M94.3584 81.7292C94.5052 81.634 94.547 81.4377 94.4517 81.2909C94.3564 81.1441 94.1602 81.1023 94.0134 81.1976C93.8666 81.2929 93.8248 81.4891 93.9201 81.6359C94.0153 81.7827 94.2116 81.8245 94.3584 81.7292Z" fill="white"/>
<path opacity="0.11" d="M89.0466 81.4002C89.1934 81.3049 89.2352 81.1086 89.1399 80.9618C89.0447 80.815 88.8484 80.7732 88.7016 80.8685C88.5548 80.9638 88.513 81.16 88.6083 81.3068C88.7036 81.4537 88.8998 81.4954 89.0466 81.4002Z" fill="white"/>
<path d="M101.719 85.071C101.829 84.9996 101.861 84.8524 101.789 84.7424C101.718 84.6323 101.571 84.601 101.461 84.6724C101.35 84.7438 101.319 84.891 101.391 85.0011C101.462 85.1111 101.609 85.1425 101.719 85.071Z" fill="white"/>
<path opacity="0.11" d="M208.988 44.8543C209.135 44.759 209.177 44.5627 209.081 44.4159C208.986 44.2691 208.79 44.2273 208.643 44.3226C208.496 44.4179 208.454 44.6141 208.55 44.7609C208.645 44.9078 208.841 44.9495 208.988 44.8543Z" fill="white"/>
<path d="M210.799 45.7556C210.909 45.6842 210.94 45.537 210.869 45.427C210.797 45.3169 210.65 45.2855 210.54 45.357C210.43 45.4284 210.399 45.5756 210.47 45.6856C210.542 45.7957 210.689 45.827 210.799 45.7556Z" fill="white"/>
<path d="M213.374 40.1208C213.484 40.0494 213.516 39.9023 213.444 39.7922C213.373 39.6821 213.226 39.6508 213.116 39.7222C213.005 39.7937 212.974 39.9408 213.046 40.0509C213.117 40.1609 213.264 40.1923 213.374 40.1208Z" fill="white"/>
<path d="M201.907 47.1833C202.017 47.1119 202.049 46.9648 201.977 46.8547C201.906 46.7446 201.759 46.7133 201.649 46.7847C201.539 46.8562 201.507 47.0033 201.579 47.1134C201.65 47.2234 201.797 47.2548 201.907 47.1833Z" fill="white"/>
<path opacity="0.11" d="M197.4 54.6399C197.546 54.5446 197.588 54.3484 197.493 54.2016C197.398 54.0548 197.201 54.013 197.055 54.1083C196.908 54.2035 196.866 54.3998 196.961 54.5466C197.056 54.6934 197.253 54.7352 197.4 54.6399Z" fill="white"/>
<path d="M192.979 53.3547C193.053 53.3071 193.074 53.2091 193.026 53.1357C192.978 53.0624 192.88 53.0415 192.807 53.0891C192.734 53.1367 192.713 53.2347 192.76 53.3081C192.808 53.3814 192.906 53.4023 192.979 53.3547Z" fill="white"/>
<path d="M211.95 50.2946C212.024 50.247 212.045 50.149 211.997 50.0757C211.949 50.0023 211.851 49.9815 211.778 50.029C211.705 50.0766 211.684 50.1747 211.731 50.248C211.779 50.3214 211.877 50.3422 211.95 50.2946Z" fill="white"/>
<path d="M262.217 21.2619C262.29 21.2143 262.311 21.1163 262.264 21.043C262.216 20.9696 262.118 20.9487 262.045 20.9963C261.971 21.0439 261.951 21.142 261.998 21.2153C262.046 21.2887 262.144 21.3095 262.217 21.2619Z" fill="white"/>
<path d="M165.552 75.6848C165.625 75.6372 165.646 75.5392 165.598 75.4658C165.551 75.3925 165.453 75.3716 165.38 75.4192C165.306 75.4668 165.285 75.5648 165.333 75.6382C165.38 75.7115 165.479 75.7324 165.552 75.6848Z" fill="white"/>
<path opacity="0.11" d="M158.905 69.8034C158.978 69.7558 158.999 69.6578 158.951 69.5845C158.904 69.5111 158.806 69.4902 158.732 69.5378C158.659 69.5854 158.638 69.6835 158.686 69.7568C158.733 69.8302 158.831 69.851 158.905 69.8034Z" fill="white"/>
<path opacity="0.11" d="M155.176 76.5666C155.249 76.519 155.27 76.421 155.222 76.3476C155.175 76.2743 155.077 76.2534 155.003 76.301C154.93 76.3486 154.909 76.4467 154.957 76.52C155.004 76.5933 155.102 76.6142 155.176 76.5666Z" fill="white"/>
<path opacity="0.11" d="M164.733 81.6931C164.806 81.6455 164.827 81.5475 164.78 81.4741C164.732 81.4008 164.634 81.3799 164.561 81.4275C164.487 81.4751 164.466 81.5731 164.514 81.6465C164.562 81.7198 164.66 81.7407 164.733 81.6931Z" fill="white"/>
<path opacity="0.11" d="M192.903 55.8581C192.976 55.8105 192.997 55.7125 192.95 55.6391C192.902 55.5658 192.804 55.5449 192.731 55.5925C192.657 55.6401 192.636 55.7382 192.684 55.8115C192.732 55.8849 192.83 55.9057 192.903 55.8581Z" fill="white"/>
<path opacity="0.11" d="M214.789 55.2502C214.862 55.2026 214.883 55.1046 214.836 55.0312C214.788 54.9579 214.69 54.937 214.617 54.9846C214.543 55.0322 214.522 55.1303 214.57 55.2036C214.618 55.2769 214.716 55.2978 214.789 55.2502Z" fill="white"/>
<path opacity="0.11" d="M239.437 37.3669C239.51 37.3193 239.531 37.2213 239.483 37.1479C239.436 37.0746 239.338 37.0537 239.264 37.1013C239.191 37.1489 239.17 37.247 239.218 37.3203C239.265 37.3936 239.363 37.4145 239.437 37.3669Z" fill="white"/>
<path opacity="0.3" d="M169.509 68.3967C169.582 68.3491 169.603 68.2511 169.556 68.1777C169.508 68.1044 169.41 68.0835 169.337 68.1311C169.263 68.1787 169.242 68.2767 169.29 68.3501C169.338 68.4234 169.436 68.4443 169.509 68.3967Z" fill="white"/>
<path d="M195.41 41.3923C195.484 41.3447 195.505 41.2467 195.457 41.1733C195.409 41.1 195.311 41.0791 195.238 41.1267C195.165 41.1743 195.144 41.2723 195.191 41.3457C195.239 41.419 195.337 41.4399 195.41 41.3923Z" fill="white"/>
<path d="M215.699 27.8484C215.773 27.8008 215.793 27.7027 215.746 27.6294C215.698 27.556 215.6 27.5352 215.527 27.5828C215.453 27.6304 215.433 27.7284 215.48 27.8017C215.528 27.8751 215.626 27.896 215.699 27.8484Z" fill="white"/>
<path d="M194.308 59.4787C194.382 59.4311 194.403 59.3331 194.355 59.2598C194.307 59.1864 194.209 59.1655 194.136 59.2131C194.063 59.2607 194.042 59.3588 194.089 59.4321C194.137 59.5055 194.235 59.5263 194.308 59.4787Z" fill="white"/>
<path opacity="0.3" d="M185.009 65.5139C185.082 65.4663 185.103 65.3683 185.055 65.2949C185.008 65.2216 184.91 65.2007 184.836 65.2483C184.763 65.2959 184.742 65.3939 184.79 65.4673C184.837 65.5406 184.935 65.5615 185.009 65.5139Z" fill="white"/>
<path opacity="0.11" d="M168.77 64.3459C168.843 64.2983 168.864 64.2003 168.816 64.1269C168.769 64.0536 168.671 64.0327 168.598 64.0803C168.524 64.1279 168.503 64.226 168.551 64.2993C168.598 64.3726 168.697 64.3935 168.77 64.3459Z" fill="white"/>
<path opacity="0.3" d="M199.873 43.0285C199.946 42.9809 199.967 42.8829 199.92 42.8096C199.872 42.7362 199.774 42.7153 199.701 42.7629C199.627 42.8105 199.606 42.9086 199.654 42.9819C199.702 43.0553 199.8 43.0761 199.873 43.0285Z" fill="white"/>
<path opacity="0.3" d="M198.207 60.5368C198.28 60.4892 198.301 60.3912 198.254 60.3179C198.206 60.2445 198.108 60.2236 198.035 60.2712C197.961 60.3188 197.94 60.4169 197.988 60.4902C198.036 60.5636 198.134 60.5844 198.207 60.5368Z" fill="white"/>
<path opacity="0.3" d="M182.992 72.2986C183.065 72.251 183.086 72.1529 183.038 72.0796C182.991 72.0062 182.893 71.9854 182.819 72.033C182.746 72.0806 182.725 72.1786 182.773 72.2519C182.82 72.3253 182.918 72.3462 182.992 72.2986Z" fill="white"/>
<path opacity="0.3" d="M173.363 65.8972C173.436 65.8496 173.457 65.7516 173.409 65.6782C173.362 65.6049 173.264 65.584 173.19 65.6316C173.117 65.6792 173.096 65.7772 173.144 65.8506C173.191 65.9239 173.289 65.9448 173.363 65.8972Z" fill="white"/>
<path opacity="0.3" d="M255.742 11.8689C255.816 11.8213 255.837 11.7232 255.789 11.6499C255.741 11.5765 255.643 11.5557 255.57 11.6033C255.497 11.6509 255.476 11.7489 255.523 11.8223C255.571 11.8956 255.669 11.9165 255.742 11.8689Z" fill="white"/>
<path opacity="0.11" d="M230.817 20.303C230.89 20.2554 230.911 20.1573 230.864 20.084C230.816 20.0106 230.718 19.9898 230.645 20.0374C230.571 20.085 230.55 20.183 230.598 20.2563C230.646 20.3297 230.744 20.3506 230.817 20.303Z" fill="white"/>
<path opacity="0.11" d="M255.863 19.9099C255.936 19.8623 255.957 19.7643 255.91 19.6909C255.862 19.6176 255.764 19.5967 255.691 19.6443C255.617 19.6919 255.596 19.7899 255.644 19.8633C255.692 19.9366 255.79 19.9575 255.863 19.9099Z" fill="white"/>
<path opacity="0.3" d="M223.025 42.9202C223.172 42.8249 223.214 42.6286 223.118 42.4818C223.023 42.335 222.827 42.2932 222.68 42.3885C222.533 42.4838 222.491 42.68 222.587 42.8269C222.682 42.9737 222.878 43.0154 223.025 42.9202Z" fill="white"/>
<path d="M225.08 49.1394C225.19 49.068 225.222 48.9208 225.15 48.8107C225.079 48.7007 224.932 48.6693 224.821 48.7408C224.711 48.8122 224.68 48.9594 224.752 49.0694C224.823 49.1795 224.97 49.2108 225.08 49.1394Z" fill="white"/>
<path d="M270.914 23.1716C271.024 23.1002 271.055 22.953 270.984 22.843C270.912 22.7329 270.765 22.7016 270.655 22.773C270.545 22.8444 270.514 22.9916 270.585 23.1017C270.657 23.2117 270.804 23.2431 270.914 23.1716Z" fill="white"/>
<path d="M183.22 76.8704C183.33 76.7989 183.362 76.6518 183.29 76.5417C183.219 76.4316 183.072 76.4003 182.962 76.4717C182.852 76.5432 182.82 76.6903 182.892 76.8004C182.963 76.9105 183.11 76.9418 183.22 76.8704Z" fill="white"/>
<path d="M163.568 85.2815C163.678 85.21 163.71 85.0629 163.638 84.9528C163.567 84.8427 163.42 84.8114 163.31 84.8829C163.199 84.9543 163.168 85.1014 163.24 85.2115C163.311 85.3216 163.458 85.3529 163.568 85.2815Z" fill="white"/>
<path d="M157.861 81.4324C157.971 81.3609 158.002 81.2138 157.931 81.1037C157.859 80.9936 157.712 80.9623 157.602 81.0337C157.492 81.1052 157.461 81.2523 157.532 81.3624C157.604 81.4725 157.751 81.5038 157.861 81.4324Z" fill="white"/>
<path d="M220.542 36.0359C220.652 35.9644 220.683 35.8173 220.612 35.7072C220.54 35.5972 220.393 35.5658 220.283 35.6373C220.173 35.7087 220.142 35.8558 220.213 35.9659C220.285 36.076 220.432 36.1073 220.542 36.0359Z" fill="white"/>
<path d="M203.804 60.8694C203.914 60.7979 203.945 60.6508 203.874 60.5407C203.802 60.4306 203.655 60.3993 203.545 60.4708C203.435 60.5422 203.404 60.6893 203.475 60.7994C203.546 60.9095 203.694 60.9408 203.804 60.8694Z" fill="white"/>
<path d="M270.337 12.9719C270.447 12.9005 270.478 12.7533 270.407 12.6433C270.335 12.5332 270.188 12.5019 270.078 12.5733C269.968 12.6447 269.937 12.7919 270.008 12.9019C270.079 13.012 270.227 13.0434 270.337 12.9719Z" fill="white"/>
<path d="M268.784 3.59594C268.894 3.52451 268.926 3.37736 268.854 3.26729C268.783 3.15721 268.636 3.12588 268.526 3.19732C268.416 3.26875 268.384 3.4159 268.456 3.52597C268.527 3.63605 268.674 3.66738 268.784 3.59594Z" fill="white"/>
<path opacity="0.3" d="M267.337 12.2756C267.484 12.1804 267.526 11.9841 267.431 11.8373C267.335 11.6905 267.139 11.6487 266.992 11.744C266.846 11.8393 266.804 12.0355 266.899 12.1823C266.994 12.3291 267.191 12.3709 267.337 12.2756Z" fill="white"/>
<path opacity="0.3" d="M177.168 74.3787C177.315 74.2834 177.357 74.0872 177.261 73.9403C177.166 73.7935 176.97 73.7517 176.823 73.847C176.676 73.9423 176.634 74.1385 176.73 74.2854C176.825 74.4322 177.021 74.4739 177.168 74.3787Z" fill="white"/>
<path opacity="0.3" d="M161.663 74.0559C161.809 73.9606 161.851 73.7644 161.756 73.6176C161.661 73.4708 161.464 73.429 161.318 73.5243C161.171 73.6195 161.129 73.8158 161.224 73.9626C161.32 74.1094 161.516 74.1512 161.663 74.0559Z" fill="white"/>
<path opacity="0.11" d="M259.303 11.825C259.45 11.7297 259.492 11.5334 259.397 11.3866C259.301 11.2398 259.105 11.198 258.958 11.2933C258.812 11.3886 258.77 11.5848 258.865 11.7316C258.96 11.8785 259.157 11.9202 259.303 11.825Z" fill="white"/>
<path opacity="0.3" d="M177.731 57.2087C177.877 57.1135 177.919 56.9172 177.824 56.7704C177.729 56.6236 177.532 56.5818 177.386 56.6771C177.239 56.7724 177.197 56.9686 177.292 57.1154C177.388 57.2622 177.584 57.304 177.731 57.2087Z" fill="white"/>
<path opacity="0.11" d="M172.419 56.8796C172.566 56.7844 172.607 56.5881 172.512 56.4413C172.417 56.2945 172.221 56.2527 172.074 56.348C171.927 56.4433 171.885 56.6395 171.98 56.7863C172.076 56.9331 172.272 56.9749 172.419 56.8796Z" fill="white"/>
<path opacity="0.3" d="M176.875 66.072C177.022 65.9767 177.064 65.7805 176.968 65.6337C176.873 65.4869 176.677 65.4451 176.53 65.5404C176.383 65.6357 176.342 65.8319 176.437 65.9787C176.532 66.1255 176.728 66.1673 176.875 66.072Z" fill="white"/>
<path d="M185.091 60.55C185.202 60.4786 185.233 60.3315 185.161 60.2214C185.09 60.1113 184.943 60.08 184.833 60.1514C184.723 60.2228 184.691 60.37 184.763 60.4801C184.834 60.5901 184.981 60.6215 185.091 60.55Z" fill="white"/>
</g>
</g>
</g>
<defs>
<radialGradient id="paint0_radial_15_10512" cx="0" cy="0" r="1" gradientUnits="userSpaceOnUse" gradientTransform="translate(162 90.3481) rotate(26.5651) scale(180.918 144.735)">
<stop stop-color="#7877C6"/>
<stop offset="0.7" stop-opacity="0"/>
</radialGradient>
<clipPath id="clip0_15_10512">
<rect width="323.636" height="89" fill="white" transform="translate(0.181641)"/>
</clipPath>
<clipPath id="clip1_15_10512">
<rect width="235.176" height="197.148" fill="white" transform="translate(44.4121 -8.22559)"/>
</clipPath>
</defs>
</svg>
