<svg width="112" height="68" viewBox="0 0 112 68" fill="none" xmlns="http://www.w3.org/2000/svg">
<g clip-path="url(#clip0_77_234)">
<path d="M12.4634 62.1951H10.556V60.2877C9.72677 61.5317 8.15116 62.5268 6.4097 62.5268C3.0097 62.5268 0.438965 59.7073 0.438965 56.3073C0.438965 52.8243 3.0097 50.0878 6.4097 50.0878C8.15116 50.0878 9.64384 50.9999 10.4731 52.1609V44.6975H12.4634V62.1951V62.1951ZM6.4097 51.9121C4.17067 51.9121 2.42921 53.9024 2.42921 56.3073C2.42921 58.7121 4.17067 60.6195 6.4097 60.6195C8.64872 60.6195 10.4731 58.6292 10.4731 56.3073C10.4731 53.9024 8.64872 51.9121 6.4097 51.9121V51.9121ZM25.7316 62.1951H23.8243V60.2877C22.9951 61.5317 21.4195 62.5268 19.678 62.5268C16.278 62.5268 13.7073 59.7073 13.7073 56.3073C13.7073 52.9073 16.278 50.0878 19.678 50.0878C21.4195 50.0878 22.9951 51.0829 23.8243 52.2438V50.3365H25.7316V62.1951ZM19.678 51.9121C17.439 51.9121 15.6975 53.9024 15.6975 56.3073C15.6975 58.7121 17.439 60.6195 19.678 60.6195C21.917 60.6195 23.7414 58.6292 23.7414 56.3073C23.8243 53.9024 21.917 51.9121 19.678 51.9121V51.9121ZM33.7756 62.1951C30.956 62.5268 29.0487 60.8682 29.0487 57.8829V52.2438H27.3902V50.4195H29.0487V44.7804H31.039V50.4195H33.7756V52.2438H31.039V57.8829C31.039 59.956 32.3658 60.5365 33.7756 60.3707V62.1951V62.1951ZM37.5902 62.1951H35.5999V50.3365H37.5902V62.1951ZM50.1121 62.1951H48.1219V54.9804C48.1219 53.156 47.1268 51.8292 45.2195 51.8292C43.3951 51.8292 42.0682 53.156 42.0682 54.8975V62.1951H40.078V50.3365H41.9853V51.6634C42.8146 50.6682 44.0585 50.0878 45.4682 50.0878C48.3707 50.0878 50.0292 52.1609 50.0292 55.0634L50.1121 62.1951V62.1951ZM63.7951 61.6146C63.7951 65.4292 61.3073 67.9999 57.6585 67.9999C54.839 67.9999 52.5999 66.5073 52.0195 64.1024H54.0926C54.9219 65.8439 56.7463 66.0926 57.6585 66.0926C60.7268 66.0926 61.8048 63.7707 61.8048 61.6146V60.3707C60.9755 61.5317 59.4829 62.4439 57.7414 62.4439C54.3414 62.4439 51.7707 59.6243 51.7707 56.2243C51.7707 52.8243 54.3414 50.0048 57.7414 50.0048C59.4829 50.0048 61.0585 50.9999 61.8877 52.1609V50.2536H63.7951V61.6146V61.6146ZM57.7414 51.9121C55.5024 51.9121 53.7609 53.9024 53.7609 56.3073C53.7609 58.7121 55.5024 60.7024 57.7414 60.7024C59.9804 60.7024 61.8048 58.7121 61.8048 56.3073C61.8048 53.8195 59.9804 51.9121 57.7414 51.9121ZM67.5268 62.1951H65.2048V59.7902H67.5268V62.1951ZM74.2438 62.4439C70.9268 62.4439 68.2731 59.7073 68.2731 56.3073C68.2731 52.9073 70.9268 50.0878 74.2438 50.0878C76.8975 50.0878 78.9707 51.6634 79.7999 54.0682H77.6438C76.9804 52.7414 75.7365 51.9951 74.1609 51.9951C71.9219 51.9951 70.1804 53.9853 70.1804 56.3902C70.1804 58.7951 72.0048 60.7024 74.1609 60.7024C75.7365 60.7024 76.9804 59.8731 77.6438 58.6292H79.7999C78.9707 60.8682 76.8975 62.4439 74.2438 62.4439V62.4439ZM92.9024 56.3073C92.9024 59.7073 90.3316 62.4439 86.8487 62.4439C83.4487 62.4439 80.7951 59.7073 80.7951 56.3073C80.7951 52.8243 83.4487 50.0878 86.8487 50.0878C90.3316 50.0878 92.9024 52.9073 92.9024 56.3073ZM90.9121 56.3073C90.9121 53.8195 89.0877 51.8292 86.8487 51.8292C84.6097 51.8292 82.8682 53.8195 82.8682 56.3073C82.8682 58.7121 84.6926 60.7024 86.8487 60.7024C89.0877 60.7024 90.9121 58.7121 90.9121 56.3073ZM111.561 62.1951H109.571V54.8146C109.571 52.9902 108.658 51.8292 106.834 51.8292C105.176 51.8292 104.015 53.156 104.015 54.8975V62.1951H102.024V54.8146C102.024 52.9902 101.112 51.8292 99.3707 51.8292C97.7121 51.8292 96.5512 53.156 96.5512 54.8975V62.1951H94.5609V50.3365H96.4682V51.6634C97.2146 50.6682 98.2926 50.0878 99.6194 50.0878C101.278 50.0878 102.605 50.8341 103.351 52.078C104.097 50.8341 105.341 50.0878 107.083 50.0878C109.819 50.0878 111.561 51.9121 111.561 54.8975V62.1951V62.1951Z" fill="white"/>
<path d="M36.759 47.1853C38.1787 47.1853 39.3297 46.0715 39.3297 44.6975C39.3297 43.3235 38.1787 42.2097 36.759 42.2097C35.3392 42.2097 34.1882 43.3235 34.1882 44.6975C34.1882 46.0715 35.3392 47.1853 36.759 47.1853Z" fill="white"/>
<path d="M63.3805 18.4097C67.6098 14.1805 67.5269 7.38047 63.2976 3.1512C59.0683 -1.07807 52.1854 -1.07807 47.9561 3.1512C43.2293 7.7951 42.3171 18.078 41.9025 21.0634C41.322 25.7073 41.6537 39.8049 41.6537 39.8049C41.6537 39.8049 55.9171 40.1366 60.6439 39.5561C63.6293 39.1414 73.8293 38.561 78.8049 33.6683C83.0342 29.439 83.0342 22.639 78.8049 18.4927C74.5756 14.2634 67.6098 14.1805 63.3805 18.4097" fill="white"/>
</g>
<defs>
<clipPath id="clip0_77_234">
<rect width="111.122" height="68" fill="white" transform="translate(0.438965)"/>
</clipPath>
</defs>
</svg>
