<svg width="234" height="46" viewBox="0 0 234 46" fill="none" xmlns="http://www.w3.org/2000/svg">
<path d="M8.02758 43.7171H2.45898V26.8125H8.02758C13.919 26.8125 17.0766 29.6886 17.0766 35.2532C17.0766 40.7704 14.4537 43.7171 8.02758 43.7171ZM7.62406 29.3841H5.79813V41.1444H7.58371C12.1839 41.2382 13.6668 38.9942 13.6668 35.2764C13.6668 31.1846 11.5382 29.3841 7.62406 29.3841Z" fill="#060809"/>
<path d="M22.1806 36.5857C22.2714 35.0423 23.028 33.6158 24.7733 33.6158C26.468 33.6158 27.3053 34.878 27.2347 36.5857H22.1806ZM24.8741 31.6289C20.4253 31.6289 18.8818 34.7852 18.8818 37.754C18.8818 41.2853 20.6573 43.9265 24.4504 44.0435C27.4668 44.0677 30.1401 43.1553 30.3217 39.8589H27.2347C27.2347 41.1916 26.1553 42.0565 24.8943 42.0565C22.7657 42.0565 22.0898 40.49 22.0596 38.5726L30.584 38.5494C30.8362 35.0423 29.3129 31.6289 24.8741 31.6289Z" fill="#060809"/>
<path d="M44.2739 43.7164H41.086L41.0659 41.799C40.5312 43.3182 39.0483 44.0904 37.2324 44.0904C35.0736 44.0904 33.0358 42.7809 33.0156 39.6478V32.0488H36.2438V39.2032C36.2236 40.8867 36.8793 41.8222 38.4632 41.8454C39.8957 41.8454 41.0659 41.0268 41.0659 38.7597V32.0488H44.2739V43.7164Z" fill="#060809"/>
<path d="M48.411 32.0972V30.2494L51.5282 28.6133V32.0972H54.5042V34.3644H51.5282V39.9996C51.5282 41.1448 51.9217 41.8 53.0919 41.8464C53.5357 41.8464 53.9393 41.8928 54.5244 41.7295V43.7406C53.0011 43.9513 51.2458 44.3485 49.7931 43.5763C48.6935 42.9926 48.411 41.9634 48.411 40.3272V34.3644H45.9092V32.0972H48.411Z" fill="#060809"/>
<path d="M66.6208 38.6898C67.1352 39.7191 67.1151 41.0749 66.4795 42.0104C65.3799 43.6929 62.9891 44.1143 61.1429 44.0679C58.5201 43.9036 56.1897 43.2262 56.3007 40.0931H59.4885C59.4582 41.4489 60.3056 41.9399 61.5162 41.9862C62.6864 41.9862 63.8566 41.5891 63.8566 40.5134C63.8566 39.6485 63.0395 39.2745 61.9903 39.0406C60.7899 38.7836 59.9324 38.6666 58.5907 38.1283C57.5213 37.6142 56.4621 36.7492 56.4621 35.1131C56.4621 33.7562 57.5213 32.728 58.9034 32.1665C59.8315 31.7693 60.9815 31.6523 61.9702 31.6523C64.1895 31.6523 66.6006 32.4235 66.4593 35.229H63.4632C63.4632 34.8087 63.3724 34.3409 63.0193 34.0607C62.3636 33.476 60.346 33.4054 59.7205 34.3641C59.0144 36.0012 61.1934 36.1182 63.6044 36.7724C65.1277 37.1232 66.1567 37.7543 66.6208 38.6898Z" fill="#060809"/>
<path d="M74.5965 31.6035C77.1488 31.6035 79.7918 32.7729 79.7918 35.9766L76.6544 35.9524C76.6544 34.4564 75.8373 33.5441 74.2938 33.6146C73.8903 33.6378 73.4666 33.778 73.1236 33.9655C72.1552 34.527 71.8525 36.0935 71.8525 37.6601C71.8525 39.3194 72.2561 40.9333 72.9824 41.517C73.4666 41.9848 74.3342 42.1259 75.0807 41.9848C76.3215 41.7751 76.6948 40.5583 76.7251 39.5069L79.7918 39.4837C79.8322 42.8265 77.0983 44.0896 74.2434 44.0423C70.4301 43.9021 68.6748 41.4243 68.6748 37.7528C68.6748 34.036 70.8034 31.6035 74.5965 31.6035Z" fill="#060809"/>
<path d="M82.2676 26.8359H85.4958V33.8966C86.3432 32.4006 87.6042 31.7463 89.3091 31.7463C91.4679 31.7463 93.5057 33.3593 93.5057 35.6738V43.7173H90.3179V36.5619C90.3179 34.9722 89.642 33.9208 88.1187 33.9208C86.6962 33.9208 85.4756 34.8553 85.4756 37.0065V43.7173H82.2676V26.8359Z" fill="#060809"/>
<path d="M99.3037 36.5857C99.3945 35.0423 100.141 33.6158 101.896 33.6158C103.581 33.6158 104.428 34.878 104.358 36.5857H99.3037ZM101.997 31.6289C97.5484 31.6289 96.0049 34.7852 96.0049 37.754C96.0049 41.2853 97.7804 43.9265 101.573 44.0435C104.59 44.0677 107.263 43.1553 107.445 39.8589H104.358C104.358 41.1916 103.278 42.0565 102.017 42.0565C99.8888 42.0565 99.2129 40.49 99.1826 38.5726L107.707 38.5494C107.959 35.0423 106.436 31.6289 101.997 31.6289Z" fill="#060809"/>
<path d="M127.612 43.2247C126.522 43.5745 125.11 43.7156 123.597 43.7156H117.483V26.8574H123.99C126.896 26.8574 129.932 27.7697 130.053 31.0198C130.124 33.0773 128.721 34.3858 126.966 34.9705C128.318 35.3213 129.418 35.7185 130.164 36.9816C130.82 38.1036 130.87 39.6006 130.336 40.8396C129.771 42.0089 128.903 42.7801 127.612 43.2247ZM123.99 29.3827H120.691V33.7547H124.041C125.796 33.7547 126.704 33.0299 126.704 31.6035C126.704 30.2708 125.655 29.3827 123.99 29.3827ZM124.323 36.28L120.691 36.2568V41.2136H124.202C126.542 41.2136 127.289 40.0674 127.289 38.6419C127.289 37.5431 126.492 36.2568 124.323 36.28Z" fill="#060809"/>
<path d="M137.821 42.0325C136.631 41.9387 135.925 41.354 135.925 40.2321C135.945 37.7774 139.062 38.0344 140.676 38.0344C140.747 39.975 140.585 41.9851 137.821 42.0325ZM143.743 35.2521C143.743 32.867 141.171 31.6744 138.195 31.6976C135.36 31.745 133.302 32.6563 133.262 35.3922H136.369C136.298 34.1291 137.166 33.4749 138.316 33.4517C140.041 33.4517 140.818 34.246 140.656 36.2108C138.941 36.3035 136.651 36.1866 134.946 36.982C133.705 37.5667 132.747 38.6655 132.747 40.4186C132.747 42.6636 134.311 44.0194 136.601 44.09C138.245 44.2533 140.111 43.5285 140.838 42.0093L140.959 43.716H143.743C143.743 40.8863 143.743 38.104 143.743 35.2521Z" fill="#060809"/>
<path d="M146.851 32.0495H150.079V33.9205C150.926 32.4003 152.47 31.7461 154.205 31.7461C156.142 31.7461 158.129 32.8681 158.129 35.6736V43.7171H154.901V36.5617C154.921 35.0425 154.175 33.9205 152.702 33.9205C151.249 33.9205 150.059 34.855 150.059 37.0063V43.7171H146.851V32.0495Z" fill="#060809"/>
<path d="M169.427 43.7173L164.514 37.0297L168.962 32.0498H172.756L168.145 36.9128L173.573 43.7173H169.427ZM161.245 26.8359H164.423V43.7173H161.245V26.8359Z" fill="#060809"/>
<path d="M190.693 2.4668H231.782V43.6924H190.693V2.4668ZM215.661 12.2311L199.611 33.7568H206.864L222.975 12.2311H215.661ZM196.413 37.9826H226.062V8.1776H196.413V37.9826Z" fill="#060809"/>
</svg>
