<svg width="111" height="36" viewBox="0 0 111 36" fill="none" xmlns="http://www.w3.org/2000/svg">
<path d="M54.883 12.7311C53.0482 12.7311 51.7084 13.3782 50.8347 14.7031C50.8347 13.8522 50.195 13.1625 49.406 13.1625H46V23.3551C46 26.2345 48.1646 28.5686 50.8347 28.5686V20.3725C50.8347 18.5546 51.7084 17.5686 53.2229 17.5686C54.5335 17.5686 55.4072 18.4006 55.4072 20.0028V23.3551C55.4072 26.2345 57.5718 28.5686 60.2419 28.5686V19.3557C60.2419 15.0728 58.0285 12.7311 54.883 12.7311Z" fill="white"/>
<path d="M69.1812 29C71.3655 29 73.2004 28.2297 74.6857 26.6583C76.2002 25.0868 76.9574 23.1457 76.9574 20.8655C76.9574 18.5854 76.2002 16.6751 74.6857 15.1036C73.2004 13.5322 71.3655 12.7311 69.1812 12.7311C67.0259 12.7311 65.1911 13.5322 63.6766 15.1036C62.1621 16.6751 61.4049 18.5854 61.4049 20.8655C61.4049 23.1457 62.1621 25.0868 63.6766 26.6583C65.1911 28.2297 67.0259 29 69.1812 29ZM69.1812 24.07C67.5211 24.07 66.2687 22.7451 66.2687 20.8655C66.2687 18.986 67.5211 17.6611 69.1812 17.6611C70.8995 17.6611 72.1227 18.986 72.1227 20.8655C72.1227 22.7451 70.8995 24.07 69.1812 24.07Z" fill="white"/>
<path d="M89.0519 14.5798C88.0616 13.3473 86.6928 12.7311 84.9162 12.7311C82.9648 12.7311 81.3338 13.5014 80.0232 15.0728C78.7126 16.6134 78.0719 18.5546 78.0719 20.8655C78.0719 23.1765 78.7126 25.1176 80.0232 26.6891C81.3338 28.2297 82.9648 29 84.9162 29C86.6928 29 88.0616 28.3838 89.0519 27.1513C89.0519 27.9341 89.6403 28.5686 90.3662 28.5686H93.8866V7C91.2164 7 89.0519 9.33417 89.0519 12.2135V14.5798ZM83.7803 23.2997C83.227 22.6835 82.9357 21.8824 82.9357 20.8655C82.9357 19.8487 83.227 19.0476 83.7803 18.4314C84.3337 17.8151 85.0909 17.507 85.9938 17.507C86.8966 17.507 87.6539 17.8151 88.2073 18.4314C88.7606 19.0476 89.0519 19.8487 89.0519 20.8655C89.0519 21.8824 88.7606 22.6835 88.2073 23.2997C87.6539 23.916 86.8966 24.2241 85.9938 24.2241C85.0909 24.2241 84.3337 23.916 83.7803 23.2997Z" fill="white"/>
<path d="M106.165 14.5798C105.175 13.3473 103.806 12.7311 102.03 12.7311C100.078 12.7311 98.4473 13.5014 97.1367 15.0728C95.8261 16.6134 95.1853 18.5546 95.1853 20.8655C95.1853 23.1765 95.8261 25.1176 97.1367 26.6891C98.4473 28.2297 100.078 29 102.03 29C103.806 29 105.175 28.3838 106.165 27.1513C106.165 27.9341 106.754 28.5686 107.48 28.5686H111V13.1625H107.48C106.754 13.1625 106.165 13.797 106.165 14.5798ZM100.894 23.2997C100.34 22.6835 100.049 21.8824 100.049 20.8655C100.049 19.8487 100.34 19.0476 100.894 18.4314C101.447 17.8151 102.204 17.507 103.107 17.507C104.01 17.507 104.767 17.8151 105.321 18.4314C105.874 19.0476 106.165 19.8487 106.165 20.8655C106.165 21.8824 105.874 22.6835 105.321 23.2997C104.767 23.916 104.01 24.2241 103.107 24.2241C102.204 24.2241 101.447 23.916 100.894 23.2997Z" fill="white"/>
<path d="M0 14.087C0 6.30695 6.30695 0 14.087 0H21.913C29.6931 0 36 6.30695 36 14.087V21.913C36 29.6931 29.6931 36 21.913 36H14.087C6.30695 36 0 29.6931 0 21.913V14.087Z" fill="white"/>
<path d="M19.9796 10C17.9182 10 16.4131 10.6537 15.4315 11.9922C15.4315 11.1326 14.715 10.4358 13.8312 10.4358H10V20.7173C10 23.6349 12.4318 26 15.4315 26V17.7198C15.4315 15.8833 16.4131 14.8872 18.1145 14.8872C19.5869 14.8872 20.5685 15.7276 20.5685 17.3463V20.7173C20.5685 23.6349 23.0003 26 26 26V16.6926C26 12.3658 23.5133 10 19.9796 10Z" fill="#060809"/>
</svg>
