<svg width="48" height="48" viewBox="0 0 48 48" fill="none" xmlns="http://www.w3.org/2000/svg">
<g clip-path="url(#clip0_82_272)">
<mask id="mask0_82_272" style="mask-type:alpha" maskUnits="userSpaceOnUse" x="0" y="0" width="48" height="48">
<path d="M47.8093 0.200287H0.205933V47.8036H47.8093V0.200287Z" fill="white"/>
</mask>
<g mask="url(#mask0_82_272)">
<path d="M34.3648 24.0202C34.3663 27.0092 33.8268 29.9739 32.7732 32.7706C29.975 33.8246 27.0099 34.3645 24.0197 34.3649H23.9848C20.9061 34.3611 17.9562 33.7984 15.2339 32.7721C14.1796 29.9746 13.6401 27.0095 13.6408 24.0202V23.9837C13.6393 20.9954 14.1781 18.0311 15.2309 15.2344C18.0288 14.1785 20.9946 13.6386 23.9852 13.6397H24.0201C27.0103 13.6382 29.9757 14.1785 32.7736 15.234C33.8276 18.0307 34.3667 20.9947 34.3652 23.9833L34.3648 24.0202ZM64.8754 17.0938H40.6814L57.7883 -0.0142612C56.4456 -1.9003 54.9478 -3.6712 53.3107 -5.30838V-5.30952C51.6731 -6.9448 49.903 -8.44139 48.0177 -9.78335L30.9096 7.32471V-16.8693C28.6341 -17.2523 26.3309 -17.4453 24.0235 -17.4464H23.981C21.6341 -17.4453 19.335 -17.2458 17.0949 -16.8693V7.32471L-0.0131626 -9.78335C-1.89844 -8.44177 -3.66821 -6.94403 -5.3031 -5.30648L-5.31222 -5.30002C-6.94673 -3.66513 -8.44257 -1.89688 -9.78377 -0.0142612L7.32544 17.0938H-16.8682C-16.8682 17.0938 -17.4453 21.6379 -17.4453 23.9875V24.016C-17.4453 26.3656 -17.2462 28.6684 -16.8682 30.9097H7.32581L-9.78339 48.0181C-7.09225 51.7947 -3.79017 55.0968 -0.0131626 57.7883L17.0949 40.6791V64.8743C19.3677 65.2553 21.6683 65.448 23.973 65.4502H24.0315C26.3359 65.448 28.6364 65.2557 30.9092 64.8743V40.6791L48.0192 57.7883C49.9037 56.446 51.6739 54.949 53.3107 53.3134L53.3145 53.3096C54.9493 51.6724 56.4459 49.9022 57.7883 48.0181L40.6787 30.9097H64.8754C65.2523 28.6722 65.4487 26.3766 65.4513 24.0319V23.9719C65.4487 21.6273 65.2523 19.3317 64.8754 17.0938Z" fill="#DB009E"/>
<path d="M34.3648 24.0202C34.3663 27.0092 33.8268 29.9739 32.7732 32.7706C29.975 33.8246 27.0099 34.3645 24.0197 34.3649H23.9848C20.9061 34.3611 17.9562 33.7984 15.2339 32.7721C14.1796 29.9746 13.6401 27.0095 13.6408 24.0202V23.9837C13.6393 20.9954 14.1781 18.0311 15.2309 15.2344C18.0288 14.1785 20.9946 13.6386 23.9852 13.6397H24.0201C27.0103 13.6382 29.9757 14.1785 32.7736 15.234C33.8276 18.0307 34.3667 20.9947 34.3652 23.9833L34.3648 24.0202Z" fill="#DB009E"/>
<path fill-rule="evenodd" clip-rule="evenodd" d="M34.359 23.4162L40.6814 17.0938L57.7883 -0.0142612C56.4456 -1.9003 54.9478 -3.6712 53.3107 -5.30838V-5.30952C51.6731 -6.9448 49.903 -8.44139 48.0177 -9.78335L30.9096 7.32471L24.5884 13.646C24.5857 13.6459 24.5831 13.6459 24.5804 13.6458C27.3803 13.7078 30.1506 14.2445 32.7736 15.234C33.7609 17.8537 34.2964 20.6202 34.359 23.4162Z" fill="#6BE795"/>
<path fill-rule="evenodd" clip-rule="evenodd" d="M32.7736 15.234C30.1531 14.2454 27.3855 13.7088 24.5884 13.646L22 16.2343L30.2752 27.5L34.359 23.4162C34.2964 20.6202 33.7609 17.8537 32.7736 15.234Z" fill="#6BE795"/>
</g>
<circle cx="24" cy="24" r="10" fill="white"/>
</g>
<defs>
<clipPath id="clip0_82_272">
<rect width="48" height="48" fill="white"/>
</clipPath>
</defs>
</svg>
