<svg width="131" height="30" viewBox="0 0 131 30" fill="none" xmlns="http://www.w3.org/2000/svg">
<g clip-path="url(#clip0_43_9728)">
<path d="M0 14.6026V29.0977H2.85169H5.70337V23.2054V17.2895L7.88967 17.3602L10.076 17.4309L13.4267 23.2525L16.7537 29.0741L20.0331 29.0977C21.8154 29.0977 23.2888 29.0505 23.2888 28.9798C23.2888 28.9091 21.7679 26.2222 19.938 23.0168C18.0845 19.8114 16.5398 17.1245 16.4923 17.0538C16.4447 16.9595 17.0151 16.606 17.7755 16.2289C19.5103 15.3804 21.2688 13.7541 22.0293 12.2928C23.0749 10.2187 23.1224 6.56551 22.1243 4.63283C21.0787 2.62945 18.6548 0.932469 15.9694 0.366808C15.209 0.201824 11.8583 0.107547 7.36686 0.107547H0V14.6026ZM15.1377 5.52846C16.4447 6.11769 17.1101 7.17831 17.1101 8.7103C17.1101 10.1245 16.516 11.2086 15.3991 11.8214C14.7337 12.175 13.902 12.2693 10.171 12.3164L5.70337 12.4107V8.73387V5.05708H9.93338C13.5693 5.05708 14.2822 5.12779 15.1377 5.52846Z" fill="#060809"/>
<path d="M90.7803 14.8383V29.0977H93.5132H96.246V14.8383V0.578929H93.5132H90.7803V14.8383Z" fill="#060809"/>
<path d="M121.008 13.942C121.079 24.9252 121.079 24.9724 121.626 26.0801C122.244 27.3293 123.717 28.7434 124.905 29.2384C125.428 29.4505 126.616 29.5684 128.327 29.5684H130.941V27.2114V24.8545H129.42C128.256 24.8545 127.781 24.7367 127.282 24.3596L126.664 23.8882V18.3494V12.8342H128.802H130.941V10.5952V8.35608H128.802H126.664V5.64562V2.93517H123.788H120.937L121.008 13.942Z" fill="#060809"/>
<path d="M30.6069 8.33317C28.682 8.96954 27.375 9.77089 25.9729 11.2322C24.547 12.7642 23.8817 13.9426 23.4064 15.946C22.1231 21.3198 24.4758 26.4815 29.2286 28.7205C30.7019 29.4276 30.8921 29.4512 33.8626 29.4512C36.5241 29.4512 37.142 29.3805 38.3302 28.8855C39.9937 28.2256 42.2038 26.2929 43.083 24.6902L43.7009 23.5353L41.7998 22.4276C40.7541 21.8148 39.8036 21.3198 39.7085 21.3198C39.6135 21.3198 39.2095 21.7912 38.7817 22.3568C37.8312 23.7239 36.5479 24.5488 34.9795 24.8552C33.5774 25.1144 32.5793 24.973 31.3673 24.3602C29.9415 23.6532 28.5156 21.7912 28.5156 20.6127C28.5156 20.1413 28.6107 20.1413 36.3578 20.1413H44.1999V18.1615C44.1999 13.6362 42.0849 10.2894 38.1401 8.56887C36.4528 7.81465 32.5318 7.69681 30.6069 8.33317ZM37.0232 12.9292C37.641 13.3534 38.2352 14.0369 38.6154 14.8147L39.2332 16.0167L33.9576 16.0874C31.0584 16.111 28.6345 16.0874 28.5632 16.0167C28.2305 15.6868 29.9415 13.5891 31.1297 12.882C32.3417 12.1514 32.5555 12.1042 34.2428 12.175C35.7637 12.2457 36.1914 12.3399 37.0232 12.9292Z" fill="#060809"/>
<path d="M73.6933 8.23824C70.6278 9.08673 67.7998 11.3258 66.6354 13.8477C65.8037 15.6861 65.4472 18.5144 65.8037 20.6592C66.7305 26.2451 70.8892 29.5684 76.9728 29.5684C80.5374 29.5684 82.9138 28.7199 85.2189 26.6693C86.5497 25.4673 87.4527 23.9589 88.0468 21.9319C88.5458 20.2114 88.427 16.346 87.8329 14.7198C86.8586 12.0564 84.2683 9.58168 81.3453 8.54464C79.5393 7.8847 75.5469 7.74328 73.6933 8.23824ZM79.4917 13.5177C82.8187 14.979 83.9119 19.3865 81.678 22.309C80.0858 24.3831 76.7351 25.1609 74.4775 23.9825C73.2418 23.3225 71.911 21.8612 71.5308 20.7299C71.0555 19.3158 71.3407 16.7939 72.0774 15.6861C73.7646 13.1642 76.6876 12.3157 79.4917 13.5177Z" fill="#060809"/>
<path d="M44.0368 8.6866C44.1081 8.85159 46.0092 13.5183 48.2668 19.057L52.378 29.1211L54.9683 29.0504L57.5586 28.9797L61.5747 19.1985C63.7848 13.8247 65.6621 9.18156 65.7334 8.87516L65.876 8.33307L62.9768 8.40377L60.0538 8.47448L57.5348 15.121C56.1565 18.7742 54.9445 21.6968 54.8732 21.6025C54.7782 21.5082 53.6137 18.4914 52.2592 14.8853L49.7877 8.35663H46.841C44.4646 8.35663 43.9418 8.42734 44.0368 8.6866Z" fill="#060809"/>
<path d="M99.0957 14.7911C99.0957 18.4208 99.2145 21.8383 99.3571 22.6161C99.8799 25.4915 101.425 27.4714 104.062 28.7205C105.583 29.4276 105.75 29.4512 108.839 29.4512C111.857 29.4512 112.142 29.404 113.473 28.7912C116.111 27.5656 117.798 25.4208 118.321 22.6161C118.463 21.8383 118.582 18.4208 118.582 14.7911V8.35674H115.873H113.14L113.069 14.7676C112.998 20.9191 112.974 21.2491 112.451 22.1919C111.691 23.606 110.407 24.2188 108.483 24.101C106.772 24.0067 105.797 23.4175 105.132 22.0976C104.728 21.2962 104.68 20.4949 104.609 14.7676L104.538 8.35674H101.805H99.0957V14.7911Z" fill="#060809"/>
</g>
<defs>
<clipPath id="clip0_43_9728">
<rect width="130.94" height="29.4615" fill="white" transform="translate(0 0.107422)"/>
</clipPath>
</defs>
</svg>
