<svg width="219" height="42" viewBox="0 0 219 42" fill="none" xmlns="http://www.w3.org/2000/svg">
<g clip-path="url(#clip0_43_9699)">
<path d="M29.4065 17.9537C29.3162 16.6227 28.955 15.2917 28.2327 14.1382L22.0932 3.57909C21.6417 2.7805 21.2806 1.89318 21.1 1.00586L20.8291 1.44952C19.2942 4.02275 19.2942 7.30585 20.8291 9.87908L25.795 18.3086C27.3299 20.8819 27.3299 24.165 25.795 26.7382L25.5241 27.1819C25.3435 26.2945 24.9824 25.4072 24.5309 24.6086L20.0165 16.8889L17.1273 11.9199C16.6759 11.1213 16.3147 10.234 16.1342 9.34669L15.8633 9.79035C14.3284 12.3636 14.3284 15.5579 15.8633 18.2199L20.8291 26.6495C22.364 29.2227 22.364 32.5058 20.8291 35.079L20.5583 35.5227C20.3777 34.6354 20.0165 33.748 19.5651 32.9495L13.3352 22.3903C12.5227 20.9706 12.1615 19.3734 12.1615 17.7762C5.5705 19.4622 0.96582 23.1002 0.96582 27.2706C0.96582 33.1269 9.81402 37.8297 20.7388 37.8297C31.6637 37.8297 40.5119 33.1269 40.5119 27.2706C40.6022 23.2776 36.0878 19.6396 29.4065 17.9537ZM48.096 35.9664C48.1863 34.4579 48.3669 33.4818 48.8183 32.2396C50.895 33.2157 53.6036 33.6593 55.5899 33.6593C59.0209 33.6593 61.0072 32.5945 61.0072 30.3762C61.0072 28.2466 59.5626 27.2706 56.1317 25.7621L54.2356 25.0523C50.7144 23.5438 48.3669 21.5917 48.3669 17.7762C48.3669 13.6058 51.3464 10.9439 57.3054 10.9439C59.7432 10.9439 62.0004 11.2988 64.077 12.0087C63.9867 13.4284 63.7158 14.5819 63.3547 15.6467C61.3683 14.9368 58.9306 14.5819 57.2151 14.5819C53.9648 14.5819 52.5201 15.8241 52.5201 17.7762C52.5201 19.6396 53.9647 20.7931 56.5831 21.8579L58.5694 22.6565C63.2644 24.6086 65.2507 26.7382 65.2507 30.2875C65.2507 34.4579 62.0004 37.3861 55.6802 37.3861C52.7007 37.3861 50.1727 36.9424 48.096 35.9664ZM85.2043 18.4861V36.7649H81.4122L81.2317 34.5466C80.1482 36.1438 78.6133 37.2086 75.995 37.2086C71.1194 37.2086 67.7788 33.6593 67.7788 27.5368C67.7788 21.1481 71.3 17.4213 78.1619 17.4213C80.8705 17.5101 83.1277 17.7762 85.2043 18.4861ZM81.1414 32.5945V21.1481C80.3288 20.9706 79.3356 20.9706 78.1619 20.9706C73.9184 20.9706 71.932 23.5438 71.932 27.6255C71.932 31.3523 73.4669 34.0142 77.0784 34.0142C78.7939 33.9255 80.0579 33.3931 81.1414 32.5945ZM106.151 24.5199V36.7649H102.088V25.2298C102.088 22.3016 101.095 20.9706 97.032 20.9706C96.0389 20.9706 94.9554 21.0593 93.7817 21.2368V36.7649H89.7187V18.4861C92.3371 17.865 95.2263 17.4213 97.1223 17.4213C103.984 17.5101 106.151 20.0833 106.151 24.5199ZM117.527 33.8368C118.701 33.8368 119.875 33.6593 120.687 33.3044C120.597 34.3692 120.417 35.6114 120.236 36.6762C119.153 37.1199 117.889 37.2973 116.805 37.2973C112.832 37.2973 110.304 35.5227 110.304 31.0861V11.8312C111.568 11.3875 113.103 11.2101 114.367 11.2101V18.1312H120.868C120.778 19.3734 120.687 20.5269 120.507 21.5917H114.367V30.5537C114.367 32.8607 115.541 33.8368 117.527 33.8368ZM139.467 18.4861V36.7649H135.675L135.495 34.5466C134.411 36.1438 132.876 37.2086 130.258 37.2086C125.382 37.2086 122.042 33.6593 122.042 27.5368C122.042 21.1481 125.563 17.4213 132.425 17.4213C135.133 17.5101 137.3 17.7762 139.467 18.4861ZM135.314 32.5945V21.1481C134.501 20.9706 133.508 20.9706 132.335 20.9706C128.091 20.9706 126.105 23.5438 126.105 27.6255C126.105 31.3523 127.64 34.0142 131.251 34.0142C132.967 33.9255 134.321 33.3931 135.314 32.5945ZM160.414 24.5199V36.7649H156.261V25.2298C156.261 22.3016 155.268 20.9706 151.205 20.9706C150.212 20.9706 149.128 21.0593 147.954 21.2368V36.7649H143.891V18.4861C146.51 17.865 149.399 17.4213 151.295 17.4213C158.157 17.5101 160.414 20.0833 160.414 24.5199ZM181.09 11.2101V36.7649H177.298L177.117 34.4579C176.034 36.1438 174.499 37.2086 171.79 37.2086C166.915 37.2086 163.574 33.6593 163.574 27.5368C163.574 21.1481 167.095 17.4213 173.957 17.4213C175.041 17.4213 176.034 17.5101 177.027 17.6875V11.6537C178.291 11.2988 179.736 11.2101 181.09 11.2101ZM177.027 32.5945V21.3255C175.944 21.1481 174.86 20.9706 173.777 20.9706C169.714 20.9706 167.818 23.4551 167.818 27.6255C167.818 31.3523 169.353 34.0142 172.964 34.0142C174.589 33.9255 175.944 33.3931 177.027 32.5945ZM201.676 28.9565H188.584C189.126 32.2396 191.022 33.748 194.723 33.748C196.981 33.748 199.238 33.3044 201.224 32.3283C201.044 33.3931 200.863 34.8128 200.592 35.9664C198.696 36.7649 196.8 37.1199 194.543 37.1199C187.681 37.1199 184.431 33.3931 184.431 27.1819C184.431 21.7692 186.959 17.4213 193.459 17.4213C199.328 17.4213 201.856 21.1481 201.856 25.7621C201.856 27.0044 201.856 27.8917 201.676 28.9565ZM188.584 25.5847H197.793C197.793 22.5678 196.168 20.7931 193.369 20.7931C190.39 20.8819 188.855 22.4791 188.584 25.5847ZM216.031 17.6875C216.031 18.9298 215.851 20.3495 215.67 21.1481C214.677 21.0593 213.774 20.9706 212.6 20.9706C211.607 20.9706 210.614 21.0593 209.621 21.1481V36.7649H205.558V18.4861C207.273 17.865 210.253 17.4213 212.51 17.4213C213.684 17.5101 215.128 17.5101 216.031 17.6875Z" fill="#060809"/>
</g>
<defs>
<clipPath id="clip0_43_9699">
<rect width="217.142" height="40.3732" fill="white" transform="translate(0.964844 0.650391)"/>
</clipPath>
</defs>
</svg>
