<svg width="137" height="54" viewBox="0 0 137 54" fill="none" xmlns="http://www.w3.org/2000/svg">
<g clip-path="url(#clip0_43_9702)">
<path d="M123.821 43.677C121.772 43.5258 119.562 43.0115 117.808 42.278C117.411 42.112 117.13 40.6033 116.931 40.5275L116.52 38.5075C116.467 36.7076 116.399 34.7192 116.369 34.0888L116.316 32.9428H117.05H117.785L117.972 34.3526C118.67 39.6189 121.455 42.2695 126.291 42.2695C129.503 42.2695 131.494 41.0665 132.496 38.5202C132.809 37.7258 132.857 37.3162 132.864 35.391C132.871 33.2 132.865 33.1645 132.354 32.1192C131.456 30.2847 130.548 29.6764 126.025 27.878C124.684 27.3446 123.09 26.6586 122.484 26.3537C118.535 24.3658 116.578 21.5456 116.586 17.8524C116.596 13.1277 119.23 9.71748 123.822 8.48323C125.421 8.05358 129.316 8.10046 130.982 8.56942C132.545 9.00915 134.612 9.82665 134.831 10.092C134.925 10.2053 135.032 11.5425 135.08 13.1991C135.126 14.7986 135.19 16.4807 135.222 16.9372L135.28 17.7671H134.536H133.791L133.464 16.1025C132.703 12.2264 130.916 10.1834 127.84 9.67124C125.349 9.25669 122.331 10.2166 121.143 11.8013C120.239 13.0059 119.966 13.9495 119.966 15.8701C119.966 17.3972 120.004 17.6041 120.434 18.4562C120.992 19.5633 121.786 20.2873 123.271 21.0452C124.312 21.5761 127.826 22.9837 128.111 22.9837C128.388 22.9837 131.545 24.5555 132.361 25.0995C134.631 26.6128 135.895 28.6435 136.345 31.5C136.565 32.8962 136.575 33.3618 136.413 34.6555C136.046 37.5867 135.19 39.4027 133.385 41.0843C131.07 43.2399 128.251 44.0042 123.821 43.677ZM67.9751 43.4635C62.9654 42.5051 60.5967 39.8717 59.9373 34.5277C59.8355 33.7025 59.772 28.741 59.772 21.6047V10.0212H57.8836H55.9951V9.30981V8.59846H62.2113H68.4274V9.30509V10.0117L66.421 10.056L64.4145 10.1002L64.3684 20.3754C64.3085 33.7454 64.4598 35.8987 65.626 38.2783C66.7766 40.626 68.9995 41.7952 72.312 41.7952C76.0689 41.7952 78.1631 40.3925 79.2928 37.1193C80.0154 35.0255 80.071 33.9193 80.072 21.6005L80.0729 10.0212H78.1844H76.296V9.30981V8.59846H80.8598H85.4235V9.30981V10.0212H83.6986H81.9738L81.9246 22.6281C81.8759 35.1021 81.8717 35.2482 81.5251 36.4996C80.5009 40.1964 78.4762 42.2675 74.9583 43.2168C73.3151 43.6603 69.6757 43.7888 67.9751 43.4635ZM87.4993 42.5539L87.548 41.8743L89.4365 41.8492L91.3249 41.8241L91.365 25.9275L91.4051 10.0309L89.4766 9.98652L87.548 9.94213L87.4996 9.27029L87.4513 8.59846H95.1807C100.069 8.59846 103.326 8.66306 104.042 8.77422C106.775 9.19867 108.641 10.4039 109.645 12.3924C110.51 14.107 110.777 16.2546 110.373 18.2606C109.94 20.4123 109.046 21.7387 107.255 22.8889C106.045 23.6663 105.265 23.9882 103.757 24.3325C103.065 24.4906 102.44 24.6698 102.368 24.7307C102.297 24.7915 102.722 24.8904 103.313 24.9503C109.392 25.5673 112.054 28.2425 112.054 33.7332C112.054 36.7561 111.34 38.688 109.568 40.4549C108.482 41.5381 107.164 42.2574 105.306 42.7806C104.119 43.1151 103.758 43.1302 95.7612 43.1809L87.4505 43.2335L87.4993 42.5539ZM101.838 41.5595C104.525 40.8566 106.322 38.997 106.918 36.3022C107.294 34.6072 107.166 31.5001 106.666 30.1764C106.058 28.5668 105.033 27.2782 103.783 26.5529C102.534 25.8279 101.629 25.6711 98.6928 25.6711H95.9674V33.7332V41.7952H98.4523C100.147 41.7952 101.224 41.7203 101.838 41.5595ZM101.83 23.8737C104.432 23.0294 105.95 20.434 105.923 16.873C105.896 13.1592 104.016 10.4867 101.135 10.0651C100.673 9.99745 99.3214 9.96377 98.1312 9.99021L95.9674 10.0383V17.0379C95.9674 20.8877 96.0205 24.0929 96.0854 24.1605C96.2905 24.3741 101.014 24.1382 101.83 23.8737Z" fill="#060809"/>
<path d="M23.1435 53.058C22.6479 52.9143 22.632 52.8831 22.632 52.0573C22.632 51.2215 22.6221 51.203 22.1205 51.1053C21.1848 50.9231 19.5726 50.1835 18.8194 49.5908C16.0454 47.408 15.0946 43.9941 16.3438 40.7012C17.1425 38.5959 19.3461 36.7135 21.7294 36.1009C22.8809 35.8049 22.8262 35.4737 21.6091 35.3718L20.6649 35.2928V34.5024V33.712L21.6484 33.6649L22.632 33.6179V29.5944C22.632 27.3814 22.599 25.5709 22.5587 25.5709C22.5184 25.5709 21.3315 26.5134 19.9212 27.6654C18.5109 28.8174 17.163 29.9125 16.9258 30.0989C16.6886 30.2853 16.4956 30.4987 16.4969 30.5731C16.4982 30.6476 16.7392 30.993 17.0326 31.3408C17.5503 31.9545 17.5586 31.9858 17.3137 32.4033C17.175 32.6399 16.8664 32.9018 16.6279 32.9853C16.2306 33.1245 16.1422 33.0754 15.5693 32.397C15.1188 31.8638 14.8957 31.7046 14.7707 31.8274C14.6449 31.951 14.7354 32.2943 15.1008 33.0785C15.5374 34.0157 15.6138 34.3744 15.6759 35.7778C15.7349 37.1104 15.6896 37.5874 15.4194 38.4786C14.6767 40.9284 12.8983 42.7145 10.4589 43.4608C9.57247 43.732 9.10995 43.7766 7.86223 43.7114C6.12578 43.6207 5.12402 43.2836 3.70991 42.3142C3.2132 41.9736 2.75289 41.6979 2.687 41.7015C2.6211 41.705 2.32641 41.9147 2.03212 42.1675C1.52583 42.6024 1.47307 42.6146 1.05122 42.3955C0.617774 42.1704 0.127945 41.4465 0.12793 41.031C0.127927 40.918 0.389583 40.6049 0.70939 40.3352L1.29086 39.8448L0.871447 38.8734C-0.971465 34.6048 0.90558 29.9433 5.09668 28.3803C5.85611 28.0971 6.33628 28.0358 7.68175 28.0505C9.62666 28.0716 10.5806 28.3696 12.2043 29.4633C13.4888 30.3286 13.807 30.184 12.9446 29.1269C12.3608 28.4112 12.3516 28.3805 12.5976 27.9693C12.7366 27.737 13.0413 27.4768 13.2748 27.3912C13.6629 27.2488 13.755 27.2995 14.3494 27.9828L14.9995 28.7302L18.383 25.9736C20.2439 24.4575 21.7665 23.1428 21.7665 23.0522C21.7665 22.9615 20.2793 21.682 18.4617 20.2089L15.1569 17.5306L14.7241 17.9445C14.1682 18.4761 14.1778 18.7877 14.7635 19.2227C15.3399 19.6507 15.3437 19.7267 14.8201 20.3517L14.4047 20.8476L13.9077 20.3638C13.3136 19.7853 13.2489 19.7774 12.8582 20.2357C12.2204 20.9837 12.2157 21.0835 12.7991 21.4826C13.0993 21.688 13.3454 21.9353 13.346 22.0323C13.3473 22.2388 12.7439 23.0419 12.5882 23.041C12.4451 23.0401 9.5041 20.6788 9.44505 20.5174C9.41949 20.4475 10.1454 19.9796 11.0581 19.4776C11.9708 18.9756 12.7176 18.51 12.7176 18.4428C12.7176 18.3757 12.513 18.1743 12.2628 17.9954L11.808 17.6701L10.2742 18.5427C9.43058 19.0226 8.71445 19.3892 8.6828 19.3574C8.65114 19.3256 8.86528 18.5399 9.15865 17.6113L9.69206 15.9229L9.28977 15.605C9.06852 15.4302 8.82015 15.3097 8.73784 15.3373C8.65553 15.3648 8.34627 16.1637 8.05059 17.1125C7.75491 18.0613 7.48496 18.8657 7.4507 18.9001C7.38719 18.9639 4.21958 16.4095 4.21958 16.2945C4.21958 16.1433 4.92137 15.2957 5.04654 15.2957C5.12259 15.2957 5.43357 15.4863 5.73761 15.7192L6.29041 16.1427L6.75002 15.6487C7.00281 15.377 7.20964 15.1051 7.20964 15.0444C7.20964 14.9836 6.94734 14.7062 6.62676 14.4279L6.04389 13.9217L6.43005 13.4318C6.90337 12.8314 6.96778 12.825 7.55308 13.3197C7.81024 13.537 8.07432 13.7149 8.13993 13.7149C8.29188 13.7149 9.10045 12.8089 9.09098 12.6492C9.08706 12.5832 8.48832 12.0669 7.76043 11.5018C6.28754 10.3582 6.1716 10.087 6.82312 9.30921C7.6408 8.33308 6.8641 7.8261 16.1798 15.4166C21.2156 19.5198 22.4542 20.5123 22.5392 20.5123C22.5903 20.5123 22.632 18.6983 22.632 16.4813V12.4502H21.8451H21.0583V13.2406V14.031H20.3501H19.642V13.2406V12.4502H18.8551H18.0682V13.2406V14.031H17.3601H16.6519V11.8993V9.76748L17.3994 10.0637C17.8105 10.2267 18.6017 10.5457 19.1576 10.7728C19.7135 10.9998 20.2269 11.1856 20.2986 11.1856C20.3702 11.1856 20.4284 10.9188 20.4278 10.5928L20.4268 9.99999L18.6747 9.30502L16.9226 8.61004L18.6757 7.90539L20.4288 7.20074V6.58485C20.4288 6.24611 20.3948 5.96895 20.3533 5.96895C20.3117 5.96895 19.5505 6.26129 18.6615 6.61859C17.7726 6.97589 16.9568 7.30362 16.8486 7.34687C16.697 7.40746 16.6519 6.93185 16.6519 5.2745V3.12351H17.3601H18.0682V3.91392V4.70431H18.8551H19.642V3.91392V3.12351H20.3501H21.0583V3.91392V4.70431H21.8451H22.632V2.89248V1.08066L23.2384 0.91663C23.666 0.800965 23.9908 0.803729 24.34 0.926002L24.8352 1.0994V10.8228C24.8352 19.0454 24.8689 20.5332 25.0533 20.4621C25.2467 20.3875 29.5445 16.9249 36.9563 10.8724C38.2998 9.77522 39.4866 8.82319 39.5937 8.75673C39.8933 8.5707 40.3754 8.78835 40.7049 9.25846C41.3592 10.1918 41.3263 10.2779 39.8703 11.4406C39.1312 12.0309 38.5265 12.5736 38.5265 12.6466C38.5265 12.8492 39.1966 13.7149 39.3534 13.7149C39.4295 13.7149 39.7427 13.5226 40.0494 13.2876L40.607 12.8604L41.0531 13.4062L41.4992 13.952L40.8792 14.5053L40.2592 15.0586L40.7511 15.598C41.0879 15.9673 41.304 16.0919 41.4364 15.9932C42.5008 15.1993 42.45 15.2125 42.8552 15.6261C43.0603 15.8356 43.2503 16.089 43.2773 16.1892C43.3311 16.3892 40.2687 18.9571 40.1008 18.8529C40.0437 18.8174 39.7611 18.0025 39.473 17.042C39.1848 16.0815 38.8716 15.298 38.7771 15.3009C38.6825 15.3038 38.441 15.4437 38.2403 15.6117L37.8754 15.9172L38.4186 17.6615C38.7173 18.6208 38.9275 19.4057 38.8857 19.4057C38.8439 19.4057 38.1025 19.0071 37.2382 18.5198L35.6667 17.6338L35.2092 18.0741L34.7517 18.5143L35.7342 19.0597C36.2746 19.3597 37.0594 19.799 37.4783 20.0359L38.2399 20.4667L36.5974 21.8138L34.9548 23.1608L34.5146 22.6067L34.0744 22.0525L34.6757 21.5454L35.277 21.0383L34.8373 20.4592C34.5954 20.1406 34.363 19.88 34.3208 19.88C34.2786 19.88 33.9764 20.093 33.6492 20.3533L33.0544 20.8265L32.6278 20.2647L32.2012 19.7029L32.7957 19.1866L33.3903 18.6703L32.9326 18.0941C32.5413 17.6015 32.4356 17.5459 32.2039 17.7109C31.5368 18.1861 25.6389 22.9711 25.631 23.0437C25.6261 23.0883 26.0293 23.444 26.5269 23.8341C27.0246 24.2242 28.585 25.4859 29.9945 26.6379C31.404 27.7899 32.5857 28.7325 32.6207 28.7325C32.6556 28.7325 32.9131 28.4124 33.1928 28.0211C33.7945 27.1794 34.1239 27.1311 34.7783 27.7886L35.255 28.2674L34.8411 28.7766C34.304 29.4372 34.0404 29.9698 34.1808 30.1107C34.2423 30.1725 34.3829 30.1544 34.4934 30.0706C35.5397 29.2761 36.8078 28.5484 37.4772 28.3585C41.3626 27.2559 44.8952 28.735 46.5921 32.175L47.2606 33.5301V35.518C47.2606 37.5717 47.2487 37.6238 46.3034 39.7251C46.2628 39.8155 46.5152 40.1 46.8644 40.3575C47.3914 40.7461 47.4837 40.8927 47.4076 41.2208C47.3088 41.647 46.8026 42.2635 46.3509 42.5081C46.132 42.6266 45.9307 42.5395 45.4317 42.1104L44.7927 41.561L44.0751 42.1112C42.6047 43.2386 41.085 43.7526 39.2409 43.7462C37.059 43.7386 35.4779 43.0933 34.0414 41.6242C32.9252 40.4826 32.3281 39.4346 32.0021 38.0455C31.5854 36.2697 31.7415 34.6985 32.5079 32.9542C32.8065 32.2745 32.8645 31.9923 32.7329 31.8601C32.6012 31.7278 32.4779 31.7805 32.2548 32.0646C31.2921 33.2904 31.3981 33.2243 30.8499 32.9396C30.5763 32.7975 30.2746 32.5349 30.1793 32.3561C29.9989 32.0175 30.0379 31.9289 30.809 30.9255L31.1282 30.5101L28.1419 28.081C26.4995 26.745 25.0824 25.6273 24.9927 25.5973C24.8825 25.5603 24.8433 26.8383 24.8718 29.5483L24.9139 33.5539L25.8543 33.6024C26.8727 33.6549 27.0336 33.7776 27.0336 34.5024C27.0336 35.2271 26.8727 35.3499 25.8543 35.4024C24.5131 35.4715 24.6102 35.7934 26.1028 36.2258C28.0866 36.8006 29.4994 37.8408 30.6235 39.5542C31.9812 41.624 32.129 44.5969 30.9911 46.9503C30.216 48.5531 28.1474 50.3011 26.4371 50.7982C24.7941 51.2758 24.8352 51.2422 24.8352 52.1095C24.8352 52.8403 24.805 52.8984 24.3396 53.0613C23.7797 53.2574 23.8314 53.2575 23.1435 53.058ZM22.6614 48.4975C22.7064 47.8522 22.7548 47.7786 23.2221 47.6448C23.5362 47.5548 23.931 47.5548 24.2451 47.6447C24.7173 47.78 24.7625 47.8515 24.8352 48.5766C24.9079 49.3022 24.9438 49.3588 25.3073 49.3206C26.0733 49.2402 27.6203 48.3393 28.3642 47.5403C29.5193 46.2999 29.9348 45.237 29.9385 43.513C29.9402 42.7305 29.8488 41.8217 29.7354 41.4934C28.964 39.2598 26.2215 38.6302 25.0351 40.4143C24.3282 41.4772 24.7188 43.1201 25.8137 43.6888C26.2955 43.9391 27.4591 43.9356 28.022 43.6822C28.2659 43.5723 28.2974 43.6578 28.2974 44.429C28.2974 45.2637 28.2768 45.3072 27.8018 45.4735C26.671 45.8694 24.9683 45.4861 24.2967 44.6844C24.0847 44.4314 23.8812 44.2243 23.8445 44.2243C23.8077 44.2243 23.5299 44.459 23.2271 44.7459C22.35 45.5768 21.0515 45.8471 19.7782 45.4639L19.1698 45.2808V44.4195C19.1698 43.6535 19.2003 43.573 19.4452 43.6923C19.5967 43.7661 20.1587 43.827 20.6941 43.8278C21.5592 43.829 21.7216 43.7771 22.1533 43.3614C23.1197 42.431 23.119 40.8561 22.1518 39.9486C20.6946 38.5812 18.3025 39.7124 17.7489 42.0306C17.1792 44.416 18.1321 47.019 20.0637 48.354C20.8461 48.8947 22.3361 49.4795 22.504 49.3118C22.5635 49.2524 22.6343 48.886 22.6614 48.4975ZM10.1326 41.7043C11.8139 41.1107 13.3098 39.6887 13.6712 38.3404C13.9651 37.2442 13.7358 36.353 12.9594 35.5731C12.3592 34.9702 12.2077 34.8976 11.5502 34.8976C10.285 34.8976 9.34077 35.6697 9.14818 36.8619C9.0161 37.6794 9.58298 38.7447 10.354 39.1279L10.9645 39.4313L10.3174 39.9308C9.96154 40.2056 9.57542 40.4304 9.45939 40.4304C9.34336 40.4304 8.93506 40.1402 8.55205 39.7856C7.68955 38.987 7.28726 38.0139 7.41936 37.0458L7.5145 36.3486L6.73657 36.2411C5.54344 36.0763 4.36722 35.0917 3.90521 33.871C3.75517 33.4746 3.79369 33.3882 4.33406 32.9085C4.66059 32.6186 4.96966 32.3785 5.02087 32.3749C5.07209 32.3713 5.19597 32.6431 5.29615 32.9791C5.54142 33.8014 6.52974 34.5024 7.44377 34.5024C8.68375 34.5024 9.72757 33.4481 9.72757 32.1956C9.72757 30.8231 8.56653 29.8379 6.95215 29.8406C4.03745 29.8455 1.51216 33.2573 2.03047 36.4902C2.20749 37.5944 2.55341 38.5334 2.78314 38.5334C2.86747 38.5334 3.15106 38.3521 3.41333 38.1304C3.87215 37.7426 3.90857 37.7369 4.37557 37.9794C4.64253 38.1181 4.98081 38.4841 5.12732 38.7927L5.39371 39.3538L4.80664 39.8942C4.48376 40.1915 4.21958 40.4618 4.21958 40.4951C4.21958 40.6724 5.93619 41.6239 6.56124 41.793C7.66474 42.0917 9.13896 42.0551 10.1326 41.7043ZM41.7836 41.4688C42.32 41.2258 42.8865 40.8851 43.0426 40.7117C43.3185 40.405 43.3123 40.3846 42.8149 39.9671C42.2222 39.4698 42.1716 39.0605 42.6303 38.4747C43.2354 37.7021 43.5192 37.6553 44.2115 38.2141L44.8295 38.713L45.1795 37.9514C45.4674 37.325 45.5295 36.9091 45.5295 35.609C45.5295 34.1945 45.4828 33.9325 45.0852 33.1192C44.4175 31.7535 43.2517 30.5547 42.2105 30.1634C40.3543 29.4658 38.7674 29.9031 38.0764 31.3025C37.5866 32.2945 37.7052 32.9661 38.5137 33.7782C39.5457 34.8148 40.8748 34.7821 41.8234 33.6968C42.0874 33.3948 42.3034 32.9723 42.3034 32.758C42.3034 32.2527 42.4236 32.2666 43.1331 32.8541C43.8035 33.4091 43.835 33.5778 43.4204 34.3901C42.8926 35.4241 41.7902 36.1617 40.7079 36.2051L40.0746 36.2304L40.1746 36.9003C40.3261 37.9148 39.9883 38.8122 39.1285 39.6795C38.7191 40.0925 38.2703 40.4304 38.1313 40.4304C37.9923 40.4304 37.5981 40.204 37.2553 39.9273L36.6321 39.4242L37.0679 39.2361C37.8331 38.9057 38.2496 38.3048 38.3354 37.4071C38.435 36.3668 38.0664 35.6232 37.242 35.2007C36.0248 34.5769 34.8736 34.9123 34.186 36.0909C33.24 37.7124 34.145 39.9141 36.2723 41.1664C37.3878 41.8231 38.1728 42.0131 39.5494 41.9595C40.5173 41.9218 41.0338 41.8084 41.7836 41.4688Z" fill="#060809"/>
</g>
<defs>
<clipPath id="clip0_43_9702">
<rect width="136.396" height="52.376" fill="white" transform="translate(0.128906 0.832031)"/>
</clipPath>
</defs>
</svg>
