<svg width="48" height="48" viewBox="0 0 48 48" fill="none" xmlns="http://www.w3.org/2000/svg">
<g clip-path="url(#clip0_82_259)">
<mask id="mask0_82_259" style="mask-type:alpha" maskUnits="userSpaceOnUse" x="0" y="0" width="48" height="48">
<path d="M47.8093 0.200287H0.205994V47.8036H47.8093V0.200287Z" fill="white"/>
</mask>
<g mask="url(#mask0_82_259)">
<path d="M31.9998 24.0141C32.001 26.3217 31.5845 28.6106 30.7711 30.7698C28.6107 31.5835 26.3215 32.0004 24.013 32.0007H23.986C21.6091 31.9977 19.3317 31.5633 17.2299 30.771C16.4159 28.6112 15.9994 26.322 16 24.0141V23.9859C15.9988 21.6789 16.4148 19.3903 17.2276 17.231C19.3877 16.4159 21.6775 15.999 23.9863 15.9999H24.0133C26.3218 15.9988 28.6113 16.4159 30.7714 17.2308C31.5851 19.39 32.0013 21.6783 32.0001 23.9856L31.9998 24.0141ZM55.5554 18.6666H36.8765L50.0838 5.45841C49.0472 4.00231 47.8909 2.63509 46.6269 1.37112V1.37023C45.3626 0.107726 43.996 -1.04771 42.5405 -2.08376L29.3323 11.1244V-7.55443C27.5755 -7.85011 25.7973 -7.99912 24.0159 -8H23.983C22.1711 -7.99912 20.3962 -7.84512 18.6667 -7.55443V11.1244L5.45848 -2.08376C4.00296 -1.04801 2.63661 0.108316 1.3744 1.37258L1.36736 1.37757C0.105442 2.63978 -1.04941 4.00495 -2.08488 5.45841L11.1242 18.6666H-7.55437C-7.55437 18.6666 -7.99994 22.1749 -7.99994 23.9889V24.0109C-7.99994 25.8248 -7.84623 27.6027 -7.55437 29.3331H11.1245L-2.08458 42.5416C-0.00690413 45.4573 2.54245 48.0067 5.45848 50.0846L18.6667 36.8756V55.5553C20.4214 55.8495 22.1975 55.9982 23.9769 56H24.0221C25.8011 55.9982 27.5773 55.8498 29.332 55.5553V36.8756L42.5416 50.0846C43.9966 49.0483 45.3632 47.8926 46.6269 46.6298L46.6298 46.6268C47.892 45.3629 49.0475 43.9962 50.0838 42.5416L36.8745 29.3331H55.5554C55.8464 27.6057 55.998 25.8333 56.0001 24.0232V23.9768C55.998 22.1667 55.8464 20.3943 55.5554 18.6666Z" fill="#FF4A00"/>
<path d="M31.9998 24.0141C32.001 26.3217 31.5845 28.6106 30.7711 30.7698C28.6107 31.5835 26.3215 32.0004 24.013 32.0007H23.986C21.6091 31.9977 19.3317 31.5633 17.2299 30.771C16.4159 28.6112 15.9994 26.322 16 24.0141V23.9859C15.9988 21.6789 16.4148 19.3903 17.2276 17.231C19.3877 16.4159 21.6775 15.999 23.9863 15.9999H24.0133C26.3218 15.9988 28.6113 16.4159 30.7714 17.2308C31.5851 19.39 32.0013 21.6783 32.0001 23.9856L31.9998 24.0141Z" fill="#FF4A00"/>
</g>
<circle cx="24" cy="24" r="10" fill="white"/>
</g>
<defs>
<clipPath id="clip0_82_259">
<rect width="48" height="48" rx="24" fill="white"/>
</clipPath>
</defs>
</svg>
